<?xml version="1.0" encoding="UTF-8"?>
<svg version="1.1" xmlns="http://www.w3.org/2000/svg" width="200" height="200">
<path d="M0 0 C2.68026215 3.01166115 4.310749 6.36161324 6 10 C6.6234576 11.20912988 7.24810584 12.41764829 7.875 13.625 C8.24625 14.40875 8.6175 15.1925 9 16 C12.96 16 16.92 16 21 16 C21.56589844 14.92878906 22.13179688 13.85757812 22.71484375 12.75390625 C23.45563367 11.3567202 24.19652429 9.95958753 24.9375 8.5625 C25.31068359 7.85544922 25.68386719 7.14839844 26.06835938 6.41992188 C28.88671875 1.11328125 28.88671875 1.11328125 30 0 C36.70163019 -0.39382744 41.89600125 0.51874384 48.1875 2.75 C49.33895508 3.12898437 49.33895508 3.12898437 50.51367188 3.515625 C56.37449405 5.52447579 61.45737722 7.68606583 65 13 C64.9765625 14.88183594 64.9765625 14.88183594 64.625 16.984375 C63.07564194 25.80827679 63.07564194 25.80827679 66.01171875 33.77734375 C70.56970661 37.10642146 70.56970661 37.10642146 75.9921875 37.83984375 C79.61381783 36.32495947 82.89166817 34.2044729 86.24609375 32.1796875 C89.45277315 30.80604611 90.75174838 30.8291186 94 32 C102.02885862 37.47165775 107.70513413 48.05770119 113 56 C113.43408203 58.79418945 113.43408203 58.79418945 113 62 C111.86516156 63.53371475 110.7189022 65.06193638 109.48733521 66.51911926 C99.73653737 78.59218348 101.7912225 94.41116799 102.08294678 109.05255127 C102.19385928 115.01301157 102.22506314 120.97400036 102.24230576 126.93535423 C102.25737882 128.99161911 102.30112219 131.04567155 102.34915161 133.10139465 C102.4637449 144.67995739 100.07016836 153.72309766 92.4453125 162.5859375 C75.42668844 179.38707116 49.9099941 185.08278466 26.6640625 185.203125 C25.34672623 185.21167511 25.34672623 185.21167511 24.0027771 185.22039795 C22.14883609 185.22979788 20.29487876 185.23636187 18.44091797 185.24023438 C15.66732781 185.24985321 12.89450786 185.28088851 10.12109375 185.3125 C-14.9478443 185.46202126 -43.26329619 181.25045718 -62 163 C-70.56724448 152.99410503 -72.44463086 144.09568191 -72.19673347 131.09878159 C-72.15930098 128.94293012 -72.14733002 126.78827011 -72.14268494 124.6321106 C-72.12807039 118.50829384 -72.09357946 112.38560849 -71.9831543 106.26269531 C-70.86543068 83.8493735 -70.86543068 83.8493735 -80.84545898 64.67626953 C-83 62 -83 62 -83.42578125 58.84619141 C-82.83902232 54.92392331 -80.91336937 52.32460957 -78.5625 49.25 C-78.11237549 48.64454346 -77.66225098 48.03908691 -77.19848633 47.4152832 C-66.23433923 32.87131999 -66.23433923 32.87131999 -61.5859375 31.05859375 C-58.13707473 30.98044731 -56.37284041 32.10318117 -53.4375 33.875 C-48.99202727 36.70655121 -48.99202727 36.70655121 -44 38 C-39.63194102 36.66150659 -36.68229197 34.70710528 -34 31 C-33.43725023 27.12255106 -33.90282346 23.34034639 -34.48706055 19.48706055 C-35.33198573 13.6369595 -35.33198573 13.6369595 -33.51171875 10.14453125 C-30.48192613 7.55766321 -27.38640372 6.15055734 -23.6875 4.8125 C-23.04876953 4.56564453 -22.41003906 4.31878906 -21.75195312 4.06445312 C-5.90338121 -1.95704076 -5.90338121 -1.95704076 0 0 Z " fill="#468BBE" transform="translate(85,9)"/>
<path d="M0 0 C2.68026215 3.01166115 4.310749 6.36161324 6 10 C6.6234576 11.20912988 7.24810584 12.41764829 7.875 13.625 C8.24625 14.40875 8.6175 15.1925 9 16 C12.96 16 16.92 16 21 16 C21.56589844 14.92878906 22.13179688 13.85757812 22.71484375 12.75390625 C23.45563367 11.3567202 24.19652429 9.95958753 24.9375 8.5625 C25.31068359 7.85544922 25.68386719 7.14839844 26.06835938 6.41992188 C28.88671875 1.11328125 28.88671875 1.11328125 30 0 C36.70163019 -0.39382744 41.89600125 0.51874384 48.1875 2.75 C49.33895508 3.12898437 49.33895508 3.12898437 50.51367188 3.515625 C56.37449405 5.52447579 61.45737722 7.68606583 65 13 C64.9765625 14.88183594 64.9765625 14.88183594 64.625 16.984375 C63.07564194 25.80827679 63.07564194 25.80827679 66.01171875 33.77734375 C70.56970661 37.10642146 70.56970661 37.10642146 75.9921875 37.83984375 C79.61381783 36.32495947 82.89166817 34.2044729 86.24609375 32.1796875 C89.45277315 30.80604611 90.75174838 30.8291186 94 32 C102.02885862 37.47165775 107.70513413 48.05770119 113 56 C113.43408203 58.79418945 113.43408203 58.79418945 113 62 C111.86516156 63.53371475 110.7189022 65.06193638 109.48733521 66.51911926 C99.73653737 78.59218348 101.7912225 94.41116799 102.08294678 109.05255127 C102.19385928 115.01301157 102.22506314 120.97400036 102.24230576 126.93535423 C102.25737882 128.99161911 102.30112219 131.04567155 102.34915161 133.10139465 C102.4637449 144.67995739 100.07016836 153.72309766 92.4453125 162.5859375 C75.42668844 179.38707116 49.9099941 185.08278466 26.6640625 185.203125 C25.34672623 185.21167511 25.34672623 185.21167511 24.0027771 185.22039795 C22.14883609 185.22979788 20.29487876 185.23636187 18.44091797 185.24023438 C15.66732781 185.24985321 12.89450786 185.28088851 10.12109375 185.3125 C-14.9478443 185.46202126 -43.26329619 181.25045718 -62 163 C-70.56724448 152.99410503 -72.44463086 144.09568191 -72.19673347 131.09878159 C-72.15930098 128.94293012 -72.14733002 126.78827011 -72.14268494 124.6321106 C-72.12807039 118.50829384 -72.09357946 112.38560849 -71.9831543 106.26269531 C-70.86543068 83.8493735 -70.86543068 83.8493735 -80.84545898 64.67626953 C-83 62 -83 62 -83.42578125 58.84619141 C-82.83902232 54.92392331 -80.91336937 52.32460957 -78.5625 49.25 C-78.11237549 48.64454346 -77.66225098 48.03908691 -77.19848633 47.4152832 C-66.23433923 32.87131999 -66.23433923 32.87131999 -61.5859375 31.05859375 C-58.13707473 30.98044731 -56.37284041 32.10318117 -53.4375 33.875 C-48.99202727 36.70655121 -48.99202727 36.70655121 -44 38 C-39.63194102 36.66150659 -36.68229197 34.70710528 -34 31 C-33.43725023 27.12255106 -33.90282346 23.34034639 -34.48706055 19.48706055 C-35.33198573 13.6369595 -35.33198573 13.6369595 -33.51171875 10.14453125 C-30.48192613 7.55766321 -27.38640372 6.15055734 -23.6875 4.8125 C-23.04876953 4.56564453 -22.41003906 4.31878906 -21.75195312 4.06445312 C-5.90338121 -1.95704076 -5.90338121 -1.95704076 0 0 Z M-14.9375 7.8125 C-15.91589844 8.14894531 -16.89429688 8.48539063 -17.90234375 8.83203125 C-21.32005552 10.12067667 -24.65306509 11.53807223 -28 13 C-27.94239502 13.59425781 -27.88479004 14.18851563 -27.82543945 14.80078125 C-26.38833211 31.81454459 -26.38833211 31.81454459 -30.23828125 37.03515625 C-33.08266084 39.03276519 -35.85659822 40.5267869 -39 42 C-41.04406478 43.27710172 -43.01526718 44.63071103 -45 46 C-45.96421875 45.41089844 -46.9284375 44.82179687 -47.921875 44.21484375 C-49.19752959 43.45507888 -50.47359285 42.69599988 -51.75 41.9375 C-52.38421875 41.54755859 -53.0184375 41.15761719 -53.671875 40.75585938 C-57.1100538 38.61302663 -57.1100538 38.61302663 -61.01586914 38.16699219 C-63.5474336 39.22983185 -64.54358064 40.49465015 -66.19921875 42.67578125 C-66.76833984 43.42150391 -67.33746094 44.16722656 -67.92382812 44.93554688 C-68.50583984 45.71994141 -69.08785156 46.50433594 -69.6875 47.3125 C-70.28111328 48.08529297 -70.87472656 48.85808594 -71.48632812 49.65429688 C-75.41816924 54.35088176 -75.41816924 54.35088176 -77 60 C-75.89826146 61.36674353 -74.78168759 62.72460175 -73.58786011 64.01168823 C-64.2680239 74.3952747 -65.65875351 86.67837178 -65.875 99.875 C-65.87694529 102.22005272 -65.87437787 104.56511374 -65.8671875 106.91015625 C-65.85942426 112.60791042 -65.90738451 118.30303892 -66 124 C-58.0529175 125.1646956 -50.11246039 126.27763464 -42.125 127.125 C-40.93197266 127.25455078 -40.93197266 127.25455078 -39.71484375 127.38671875 C-37.81012332 127.5932547 -35.90509653 127.7969625 -34 128 C-33.34 132.95 -32.68 137.9 -32 143 C-29.16724047 143.33896268 -26.33395339 143.67129694 -23.5 144 C-22.70851562 144.09539062 -21.91703125 144.19078125 -21.1015625 144.2890625 C-16.02970596 144.87107882 -11.10506141 145.09367085 -6 145 C-5.01 140.38 -4.02 135.76 -3 131 C8.88 131 20.76 131 33 131 C33.99 137.435 33.99 137.435 35 144 C35.33 144.33 35.66 144.66 36 145 C38.68092621 144.93417369 41.32641926 144.80687433 44 144.625 C44.77077881 144.57609619 45.54155762 144.52719238 46.33569336 144.47680664 C51.57824767 144.13150193 56.78718408 143.6634493 62 143 C62.13277344 141.92878906 62.26554688 140.85757813 62.40234375 139.75390625 C62.5805056 138.35674231 62.75890319 136.95960841 62.9375 135.5625 C63.02451172 134.85544922 63.11152344 134.14839844 63.20117188 133.41992188 C63.88671875 128.11328125 63.88671875 128.11328125 65 127 C67.28703181 126.6994273 69.5821436 126.45996234 71.87890625 126.24609375 C72.5655687 126.18092056 73.25223114 126.11574738 73.95970154 126.04859924 C76.16026435 125.84071107 78.36134782 125.63904262 80.5625 125.4375 C82.05147061 125.29793427 83.54040351 125.15796558 85.02929688 125.01757812 C88.6857713 124.67370262 92.34273768 124.33540418 96 124 C95.99254257 123.40024353 95.98508514 122.80048706 95.97740173 122.18255615 C95.90808536 115.88670957 95.90269233 109.5930134 95.93286133 103.296875 C95.93592572 100.95374187 95.92320069 98.61052879 95.89379883 96.26757812 C95.61751416 72.67789048 95.61751416 72.67789048 103.97094727 64.11035156 C106.03807458 61.96039988 106.84639554 60.95660283 107 58 C105.54650786 55.5379623 104.09683036 53.38400307 102.375 51.125 C101.93542969 50.52558594 101.49585938 49.92617188 101.04296875 49.30859375 C100.15700741 48.11085716 99.25687927 46.92346776 98.34277344 45.74707031 C97.44848763 44.58352318 96.58644157 43.39446716 95.75878906 42.18261719 C94.4400434 40.25469535 94.4400434 40.25469535 92 38 C87.19925303 37.84082404 84.02808709 39.94457573 80.125 42.5625 C79.15820312 43.20316406 78.19140625 43.84382813 77.1953125 44.50390625 C76.10863281 45.24447266 76.10863281 45.24447266 75 46 C74.52691406 45.63648438 74.05382812 45.27296875 73.56640625 44.8984375 C72.57447266 44.14433594 72.57447266 44.14433594 71.5625 43.375 C70.48162109 42.52421875 70.48162109 42.52421875 69.37890625 41.65625 C67.07315356 39.92140344 67.07315356 39.92140344 64.46484375 38.96875 C61.39338919 37.60582246 59.95287486 36.78096466 58 34 C56.84336124 27.43271775 57.45766806 20.60996017 58 14 C46.11040798 7.71687608 46.11040798 7.71687608 33 6 C31.66161267 8.45570175 30.32913768 10.91429916 29 13.375 C28.42765625 14.42300781 28.42765625 14.42300781 27.84375 15.4921875 C25.74275256 19.0428946 25.74275256 19.0428946 25 23 C18.4 23 11.8 23 5 23 C4.01 20.03 4.01 20.03 3 17 C2.00181679 15.01914938 0.96022648 13.05953415 -0.125 11.125 C-0.66382812 10.15820312 -1.20265625 9.19140625 -1.7578125 8.1953125 C-2.16773437 7.47085937 -2.57765625 6.74640625 -3 6 C-7.41117438 5.80991968 -10.77842858 6.35327258 -14.9375 7.8125 Z " fill="#FAFCFD" transform="translate(85,9)"/>
<path d="M0 0 C8.58 0.66 17.16 1.32 26 2 C28.25 9.875 28.25 9.875 28.625 13.9375 C28.69976562 14.70964844 28.77453125 15.48179687 28.8515625 16.27734375 C28.90054688 16.84582031 28.94953125 17.41429687 29 18 C41.0452626 19.23037727 52.88182842 20.2692927 65 20 C65.99 15.38 66.98 10.76 68 6 C76.58 6 85.16 6 94 6 C94.99 10.62 95.98 15.24 97 20 C109.20545439 20.22510059 120.92421981 19.88894886 133 18 C133.13277344 16.92878906 133.26554688 15.85757813 133.40234375 14.75390625 C133.5805056 13.35674231 133.75890319 11.95960841 133.9375 10.5625 C134.06801758 9.50192383 134.06801758 9.50192383 134.20117188 8.41992188 C134.88671875 3.11328125 134.88671875 3.11328125 136 2 C144.57741497 0.62693555 153.34456387 0.89487325 162 1 C162.74117697 11.64412483 160.9317977 19.93435883 154 28.25 C144.60823712 37.99821593 132.34524898 42.68192423 119.4375 45.625 C118.51775391 45.8415625 117.59800781 46.058125 116.65039062 46.28125 C108.96117023 48.07226899 101.75610022 49.16275261 93.859375 49.203125 C92.53779388 49.21167511 92.53779388 49.21167511 91.18951416 49.22039795 C89.32362048 49.22982103 87.45771035 49.2363712 85.59179688 49.24023438 C82.80046465 49.24982658 80.00990617 49.28082731 77.21875 49.3125 C52.81515203 49.45736507 26.65508771 45.81165634 8.16796875 28.44140625 C0.44409715 19.74335265 0 11.54079702 0 0 Z " fill="#478CBF" transform="translate(19,139)"/>
<path d="M0 0 C4.30504653 2.71344138 7.17476117 5.15992205 9.3984375 9.82421875 C10.31989532 15.82137341 10.40650517 21.98032685 7.3984375 27.38671875 C3.85633751 32.07975319 -0.30184022 34.21749562 -6.0234375 35.26953125 C-11.92297666 35.6909269 -15.97762304 34.27864632 -20.6796875 30.71875 C-24.61159072 26.84278849 -26.39033934 22.76336653 -26.78515625 17.26953125 C-26.50431769 11.30850626 -24.87473029 7.01949025 -20.6015625 2.82421875 C-14.47562494 -1.95401255 -7.2787866 -3.28966181 0 0 Z " fill="#F5F7F9" transform="translate(150.6015625,87.17578125)"/>
<path d="M0 0 C5.06691946 3.19364468 8.52473195 6.08993653 9.92578125 12.078125 C10.79160011 17.47918551 10.48570856 21.32073021 7.703125 26.0703125 C4.54887034 30.31061292 0.56650894 33.47067623 -4.6015625 34.82421875 C-10.75818045 35.42002049 -14.72103541 34.71914061 -19.6015625 30.82421875 C-24.10445865 26.26314565 -25.78516365 23.03385728 -25.9765625 16.63671875 C-25.92535049 11.48137611 -25.61343734 8.08455631 -22.13671875 4.19140625 C-15.72125908 -1.52210745 -8.16157347 -3.68863906 0 0 Z " fill="#F6F8FA" transform="translate(65.6015625,87.17578125)"/>
<path d="M0 0 C4.08998175 1.80720124 6.66247347 4.19069751 9 8 C9.62819266 13.0255413 9.03320735 15.95572354 6 20 C3.22346505 23.23929078 0.96043786 23.89127119 -3.3125 24.375 C-8.25480563 23.87239265 -9.56012162 22.51987555 -13 19 C-15.31205572 15.7421033 -15.47249357 12.93744642 -15 9 C-11.18472234 2.05074426 -8.10531718 -0.85319128 0 0 Z " fill="#403F41" transform="translate(62,93)"/>
<path d="M0 0 C2.80117321 2.2800247 4.49113219 3.84032551 5.0234375 7.4921875 C5.08830195 11.76026853 5.12735326 14.43346584 2.9375 18.1875 C-0.41353817 21.16620059 -2.18410806 22.06212312 -6.6875 22.5625 C-11.00546607 22.11581385 -13.00576548 20.9559289 -16.3125 18.1875 C-18.66031141 15.19937638 -18.73075081 11.96838812 -18.6328125 8.21875 C-17.98746059 4.12627448 -15.73692851 1.26810094 -12.5 -1.1875 C-7.71191029 -2.55552563 -4.38237247 -2.39790192 0 0 Z " fill="#3F3E40" transform="translate(147.3125,94.8125)"/>
<path d="M0 0 C2.91351961 4.37027942 2.36811757 8.35882161 2.375 13.5 C2.39949219 14.46292969 2.42398438 15.42585938 2.44921875 16.41796875 C2.45308594 17.34222656 2.45695312 18.26648438 2.4609375 19.21875 C2.46915527 20.06373047 2.47737305 20.90871094 2.48583984 21.77929688 C2 24 2 24 0.16650391 25.81054688 C-2.88723453 27.48710915 -4.71684061 26.92784939 -8 26 C-10.93146333 23.06853667 -10.29161443 20.51559254 -10.32226562 16.50585938 C-10.31904297 15.53455078 -10.31582031 14.56324219 -10.3125 13.5625 C-10.32861328 12.59505859 -10.34472656 11.62761719 -10.36132812 10.63085938 C-10.36197266 9.70208984 -10.36261719 8.77332031 -10.36328125 7.81640625 C-10.36626221 6.96506104 -10.36924316 6.11371582 -10.37231445 5.23657227 C-9.39835784 -0.61419266 -5.15622219 -0.56249697 0 0 Z " fill="#F7FAFC" transform="translate(104,97)"/>
<path d="M0 0 C0.66 0 1.32 0 2 0 C2 1.65 2 3.3 2 5 C4.97 5 7.94 5 11 5 C9 7 9 7 7.08984375 7.23046875 C1.11111111 7.11111111 1.11111111 7.11111111 0 6 C-0.04080783 4.00041636 -0.04254356 1.99954746 0 0 Z " fill="#5494C3" transform="translate(120,147)"/>
</svg>
