<?xml version="1.0" encoding="UTF-8"?>
<svg version="1.1" xmlns="http://www.w3.org/2000/svg" width="200" height="200">
<path d="M0 0 C1.46716339 -0.00322441 2.93432649 -0.0065893 4.40148926 -0.01008606 C7.46753685 -0.01604272 10.53355641 -0.01792973 13.59960938 -0.01733398 C16.70643977 -0.01725299 19.81312189 -0.02415654 22.91992188 -0.0378418 C86.61217689 -0.31411352 86.61217689 -0.31411352 104.21875 15.91796875 C118.25405935 31.35098525 116.94148327 54.29689268 116.94921875 73.83203125 C116.9524391 75.75239079 116.95580374 77.67275009 116.95930481 79.59310913 C116.96527119 83.60911629 116.96714735 87.62510201 116.96655273 91.64111328 C116.96645142 96.74435411 116.98008326 101.84745486 116.99732494 106.95066261 C117.00853858 110.91621511 117.01046907 114.88173477 117.00994301 118.84730148 C117.01110985 120.72643896 117.0154572 122.60557767 117.02327538 124.48469925 C117.1816079 166.47926197 117.1816079 166.47926197 104.78125 180.16796875 C87.83011189 195.61789906 60.57159389 196.31607574 38.92578125 196.37109375 C37.78783395 196.37533482 37.78783395 196.37533482 36.62689781 196.37966156 C32.60095254 196.39459279 28.57504244 196.40385684 24.54907227 196.40820312 C21.26868413 196.41256287 17.98856269 196.42636517 14.70825195 196.44921875 C-48.92187161 196.88356576 -48.92187161 196.88356576 -66.171875 180.2890625 C-80.58997939 164.81080337 -79.38007351 141.98317577 -79.421875 122.1171875 C-79.42470238 121.20376902 -79.42752975 120.29035053 -79.43044281 119.3492527 C-79.44537476 114.50749048 -79.45463992 109.66575755 -79.45898438 104.82397461 C-79.46443561 99.88707018 -79.4884098 94.95044619 -79.51695633 90.01362896 C-79.53582398 86.16196479 -79.5408011 82.31036465 -79.54232025 78.45865822 C-79.54529735 76.64225559 -79.55315213 74.82585267 -79.56650543 73.00949669 C-79.85912624 30.11804691 -79.85912624 30.11804691 -66.15234375 15.91015625 C-48.94482522 0.40600824 -21.9692986 0.01149303 0 0 Z " fill="#4580E2" transform="translate(81.21875,1.83203125)"/>
<path d="M0 0 C1.46716339 -0.00322441 2.93432649 -0.0065893 4.40148926 -0.01008606 C7.46753685 -0.01604272 10.53355641 -0.01792973 13.59960938 -0.01733398 C16.70643977 -0.01725299 19.81312189 -0.02415654 22.91992188 -0.0378418 C86.61217689 -0.31411352 86.61217689 -0.31411352 104.21875 15.91796875 C108.01945576 20.05262774 111.10360103 24.77749008 112.78125 30.16796875 C112.40234375 32.46484375 112.40234375 32.46484375 111.78125 34.16796875 C111.28496094 33.14316406 110.78867188 32.11835937 110.27734375 31.0625 C105.41432961 20.96248384 105.41432961 20.96248384 96.78125 14.16796875 C95.79125 14.82796875 94.80125 15.48796875 93.78125 16.16796875 C90.77734375 15.5234375 90.77734375 15.5234375 87.21875 14.35546875 C82.13874277 12.79480673 77.45826349 11.67547407 72.16015625 11.34375 C70.27742048 11.20463159 68.40235186 10.96221259 66.53515625 10.68359375 C62.40305676 10.11602129 58.31931406 9.81462918 54.15625 9.60546875 C53.31376709 9.56228516 52.47128418 9.51910156 51.60327148 9.47460938 C42.47823856 9.06482442 33.35423896 9.11187573 24.22216797 9.20483398 C18.56785906 9.24588657 13.02588371 9.14853704 7.39453125 8.6171875 C0.53485117 8.02911084 -6.2071812 8.34947609 -13.05957031 8.8371582 C-15.11199807 8.98175435 -17.16501278 9.10796033 -19.21875 9.23242188 C-20.54955103 9.32053592 -21.88028363 9.40969092 -23.2109375 9.5 C-24.39026855 9.57968018 -25.56959961 9.65936035 -26.78466797 9.74145508 C-30.42325704 10.19336856 -33.71792567 11.09450573 -37.21875 12.16796875 C-39.04672272 12.52954577 -40.88013218 12.86513758 -42.71875 13.16796875 C-45.93464879 13.71863635 -48.99192149 14.3463586 -52.09375 15.35546875 C-55.21875 16.16796875 -55.21875 16.16796875 -57.71875 15.41796875 C-60.93016862 15.09682689 -61.58076827 15.91436846 -64.03125 17.91796875 C-65.87089196 19.44811077 -65.87089196 19.44811077 -67.21875 21.16796875 C-67.37686388 24.22067338 -67.37686388 24.22067338 -66.21875 27.16796875 C-66.59914053 29.45315069 -67.06985145 31.72385984 -67.59375 33.98046875 C-71.04580181 49.0307694 -71.37337458 63.88030823 -71.3515625 79.23828125 C-71.35223796 80.93504856 -71.35320999 82.63181578 -71.35446167 84.32858276 C-71.35592325 87.8531793 -71.35383149 91.37775022 -71.34912109 94.90234375 C-71.34338056 99.41696737 -71.34673962 103.93153209 -71.35269356 108.44615364 C-71.35630362 111.93596849 -71.35515928 115.4257693 -71.35256577 118.91558456 C-71.3519 120.58134849 -71.35271266 122.2471137 -71.35504532 123.91287613 C-71.35758392 126.2311773 -71.35371616 128.54938182 -71.34814453 130.86767578 C-71.34734894 132.1844632 -71.34655334 133.50125061 -71.34573364 134.85794067 C-71.24252542 137.54822496 -70.94107209 139.61349961 -70.21875 142.16796875 C-70.17413221 144.56338659 -70.17967942 146.95995401 -70.21875 149.35546875 C-70.27956457 155.04508601 -70.00988324 160.53114441 -69.21875 166.16796875 C-70.71875 164.85546875 -70.71875 164.85546875 -72.21875 163.16796875 C-72.21875 162.17796875 -72.21875 161.18796875 -72.21875 160.16796875 C-73.20875 160.16796875 -74.19875 160.16796875 -75.21875 160.16796875 C-75.3425 159.61109375 -75.46625 159.05421875 -75.59375 158.48046875 C-76.15087833 156.151348 -76.15087833 156.151348 -77.21875 154.04296875 C-80.64655816 144.1880203 -79.4001808 132.42726753 -79.421875 122.1171875 C-79.42470238 121.20376902 -79.42752975 120.29035053 -79.43044281 119.3492527 C-79.44537476 114.50749048 -79.45463992 109.66575755 -79.45898438 104.82397461 C-79.46443561 99.88707018 -79.4884098 94.95044619 -79.51695633 90.01362896 C-79.53582398 86.16196479 -79.5408011 82.31036465 -79.54232025 78.45865822 C-79.54529735 76.64225559 -79.55315213 74.82585267 -79.56650543 73.00949669 C-79.85912624 30.11804691 -79.85912624 30.11804691 -66.15234375 15.91015625 C-48.94482522 0.40600824 -21.9692986 0.01149303 0 0 Z " fill="#72D9E1" transform="translate(81.21875,1.83203125)"/>
<path d="M0 0 C2.99074712 1.29977617 3.81433123 2.32255576 6 5 C6.72837061 8.14880219 6.68963096 10.8465593 6 14 C3.96194385 17.01934244 2.74780317 17.79605368 -0.75 18.75 C-1.86375 18.87375 -1.86375 18.87375 -3 19 C-2.505 18.195625 -2.01 17.39125 -1.5 16.5625 C0.31570804 12.25019342 0.50628274 8.6246981 0 4 C-1.09354906 2.70475652 -1.09354906 2.70475652 -3.75 2.625 C-7.19318722 3.02229083 -8.38935868 3.67760879 -10.64453125 6.25390625 C-19.08639451 17.12858313 -23.35881445 24.89770953 -22 39 C-20.5598467 43.17644456 -19.01345658 45.99327171 -15 48 C-9.10376781 48.79372356 -4.86643797 47.16318468 0 44 C2.5771158 41.80734903 2.98540884 41.05252819 3.9375 37.625 C5.42677301 32.54395092 7.63075594 29.91282937 12 27 C14.41015625 26.734375 14.41015625 26.734375 17.0625 26.75 C17.94035156 26.74484375 18.81820312 26.7396875 19.72265625 26.734375 C22 27 22 27 24 29 C23.625 31.625 23.625 31.625 23 34 C21.68 34 20.36 34 19 34 C19 32.68 19 31.36 19 30 C16.12635209 29.58253392 16.12635209 29.58253392 13 30 C10.24386182 32.93988073 9.83322534 35.42304401 9.8125 39.3125 C9.874375 40.529375 9.93625 41.74625 10 43 C11.32 43 12.64 43 14 43 C15.45815116 41.47858479 15.45815116 41.47858479 16.5625 39.5 C17.75390625 37.53125 17.75390625 37.53125 19 36 C19.99 36 20.98 36 22 36 C22 38.31 22 40.62 22 43 C25.65316671 41.75023244 26.78065836 41.32901247 29 38 C29.75340366 35.40862258 30.39224449 32.8033211 31.0234375 30.1796875 C32 28 32 28 34.1015625 27.1953125 C35.04128906 27.09863281 35.04128906 27.09863281 36 27 C36.99 28.98 36.99 28.98 38 31 C39.051875 30.01 39.051875 30.01 40.125 29 C43.43460229 26.69766797 45.06225823 26.63369844 49 27 C48.38273804 32.67355671 47.72054048 38.33861055 47 44 C50.3859493 42.81034214 52.74472659 41.8254268 55 39 C55.62871955 36.43099364 55.94236975 33.89938164 56.27734375 31.27734375 C56.51582031 30.52582031 56.75429687 29.77429688 57 29 C58.32 28.34 59.64 27.68 61 27 C61.495 34.92 61.495 34.92 62 43 C63.65 41.68 65.3 40.36 67 39 C66.835 38.360625 66.67 37.72125 66.5 37.0625 C66.07343794 34.44980739 65.83611117 32.01430731 65.75 29.375 C65.72421875 28.61960937 65.6984375 27.86421875 65.671875 27.0859375 C66.0868637 24.44779503 66.89754044 23.59806903 69 22 C71.5625 21.625 71.5625 21.625 74 22 C76.23551759 25.35327639 76.17283528 25.90743657 75.625 29.6875 C75.51414062 30.49574219 75.40328125 31.30398437 75.2890625 32.13671875 C75.19367188 32.75160156 75.09828125 33.36648437 75 34 C79.0721972 31.37224297 79.0721972 31.37224297 82.8125 28.3125 C86.22533181 26.26480091 90.04479937 25.84703644 94 26 C94.99 26.66 95.98 27.32 97 28 C97.1875 30.625 97.1875 30.625 97 33 C95.35 33.33 93.7 33.66 92 34 C92 32.35 92 30.7 92 29 C89.62625139 28.66574265 89.62625139 28.66574265 87 29 C83.4852793 31.88709201 83.44067676 35.71187656 83.015625 39.9765625 C82.84629964 42.07102164 82.84629964 42.07102164 84 44 C85.87880872 43.95231597 85.87880872 43.95231597 88 43 C88.66 42.01 89.32 41.02 90 40 C92 37 92 37 94.125 36.3125 C94.74375 36.209375 95.3625 36.10625 96 36 C95.87431641 37.12148437 95.87431641 37.12148437 95.74609375 38.265625 C95.64425781 39.25046875 95.54242188 40.2353125 95.4375 41.25 C95.33308594 42.22453125 95.22867188 43.1990625 95.12109375 44.203125 C95.01025532 46.7631352 95.22261908 48.58148159 96 51 C94.125 50.75 94.125 50.75 92 50 C90.75 47.9375 90.75 47.9375 90 46 C89.01 46.66 88.02 47.32 87 48 C84.0625 48.4375 84.0625 48.4375 81 48 C77.94338095 45.26513033 77.06025422 43.79836847 76.75 39.6875 C76.8325 38.800625 76.915 37.91375 77 37 C71.26682605 38.33329627 69.45425283 40.51880714 66 45 C62.77208445 47.1519437 61.71599191 47.20086443 58 47 C57.505 45.02 57.505 45.02 57 43 C55.989375 43.66 54.97875 44.32 53.9375 45 C50.21133556 47.14766708 47.32101499 47.4321015 43 47 C42 46 42 46 41.8671875 43.85546875 C41.86976562 42.97503906 41.87234375 42.09460938 41.875 41.1875 C41.87113281 39.87845703 41.87113281 39.87845703 41.8671875 38.54296875 C41.98885166 36.21345785 42.34485291 34.23061985 43 32 C37.25824757 35.5463765 34.92805482 41.16401445 32 47 C30.0509375 46.9690625 30.0509375 46.9690625 28.0625 46.9375 C26.70834367 46.91600546 25.35243917 46.92851801 24 47 C23.67 47.33 23.34 47.66 23 48 C20.52836314 48.12682623 18.09709389 48.18520251 15.625 48.1875 C14.93921875 48.19974609 14.2534375 48.21199219 13.546875 48.22460938 C9.80703203 48.23552331 8.1900263 48.1266842 5 46 C1.34274034 46.37833721 -1.82409681 48.23560934 -5 50 C-5.33 50.66 -5.66 51.32 -6 52 C-10.92830327 53.97132131 -16.38601662 53.5897247 -21.25 51.8125 C-25.41304777 49.06867306 -27.4312179 46.45039435 -29.25 41.8125 C-31.41406111 30.81185603 -29.10706551 22.75421763 -23.25 13.3125 C-17.74786401 5.43634594 -10.26095899 -1.8477589 0 0 Z " fill="#E3E4E4" transform="translate(66,68)"/>
<path d="M0 0 C0.33 0 0.66 0 1 0 C1.17696351 5.66283235 0.69381565 10.53180523 -0.75 16 C-0.93119385 16.69843018 -1.1123877 17.39686035 -1.29907227 18.11645508 C-3.37622725 25.81298391 -5.8436377 31.68314165 -12 37 C-12.52980469 37.48210937 -13.05960938 37.96421875 -13.60546875 38.4609375 C-29.675556 51.96118138 -56.00101774 52.15266016 -75.85546875 52.203125 C-76.99341605 52.20736607 -76.99341605 52.20736607 -78.15435219 52.21169281 C-82.18029746 52.22662404 -86.20620756 52.23588809 -90.23217773 52.24023438 C-93.51256587 52.24459412 -96.79268731 52.25839642 -100.07299805 52.28125 C-163.70312161 52.71559701 -163.70312161 52.71559701 -180.953125 36.12109375 C-188.02931112 28.52459983 -190.57665633 21.18814419 -192 11 C-190.515 11.99 -190.515 11.99 -189 13 C-189.33 13.99 -189.66 14.98 -190 16 C-189.01 16 -188.02 16 -187 16 C-186.87625 16.64066406 -186.7525 17.28132813 -186.625 17.94140625 C-184.91538803 25.11109144 -182.09320769 28.88328386 -176 33 C-174.68113941 33.69485896 -173.35155245 34.37108969 -172 35 C-172 35.66 -172 36.32 -172 37 C-171.14535156 37.04898438 -170.29070312 37.09796875 -169.41015625 37.1484375 C-168.30542969 37.22320312 -167.20070312 37.29796875 -166.0625 37.375 C-164.40927734 37.47941406 -164.40927734 37.47941406 -162.72265625 37.5859375 C-161.82417969 37.72257812 -160.92570312 37.85921875 -160 38 C-159.67 38.66 -159.34 39.32 -159 40 C-156.86230445 40.62690921 -156.86230445 40.62690921 -154.25 41 C-152.74373047 41.24556641 -152.74373047 41.24556641 -151.20703125 41.49609375 C-150.14871094 41.66238281 -149.09039062 41.82867187 -148 42 C-147.01386719 42.17660156 -146.02773437 42.35320312 -145.01171875 42.53515625 C-130.15854127 45.08303295 -115.21196473 45.09265816 -100.1875 45.125 C-99.47419525 45.12767883 -98.7608905 45.13035767 -98.02597046 45.13311768 C-95.96908506 45.13897766 -93.91235515 45.13724108 -91.85546875 45.1328125 C-90.65559326 45.13168457 -89.45571777 45.13055664 -88.21948242 45.12939453 C-85.3403967 45.01368092 -82.80766543 44.59179325 -80 44 C-78.50909725 43.93468115 -77.01558789 43.91415982 -75.5234375 43.9375 C-74.69287842 43.94595947 -73.86231934 43.95441895 -73.0065918 43.96313477 C-71.70395386 43.98138306 -71.70395386 43.98138306 -70.375 44 C-63.19154985 44.05116694 -56.13346979 43.94568094 -49 43 C-47.91847656 42.85820312 -46.83695313 42.71640625 -45.72265625 42.5703125 C-32.83720103 40.59625535 -18.40164618 38.00712339 -9.2109375 27.88671875 C-4.85459021 21.09924862 -3.52700312 12.90504686 -3 5 C-2.34 5 -1.68 5 -1 5 C-0.67 3.35 -0.34 1.7 0 0 Z " fill="#350DA8" transform="translate(196,146)"/>
<path d="M0 0 C3.80183524 0.14080871 6.29122484 0.53929614 9.5 2.625 C11.63470346 6.00494715 10.75210479 8.17110286 10 12 C10.185625 12.7425 10.37125 13.485 10.5625 14.25 C10.706875 14.8275 10.85125 15.405 11 16 C10.01 17.485 10.01 17.485 9 19 C8.97360171 21.29714187 8.97360171 21.29714187 9.375 23.6875 C9.48585938 24.49574219 9.59671875 25.30398437 9.7109375 26.13671875 C9.80632812 26.75160156 9.90171875 27.36648437 10 28 C7.8125 28.75 7.8125 28.75 5 29 C4.195625 28.319375 3.39125 27.63875 2.5625 26.9375 C1.716875 26.298125 0.87125 25.65875 0 25 C-2.95800528 25.70768358 -2.95800528 25.70768358 -6 27 C-10.19545513 27.38846807 -13.08625268 27.06640505 -16.875 25.375 C-21.00737861 23.648513 -23.63651296 24.33177289 -27.84765625 25.51953125 C-31.01458382 26.22648604 -33.82072137 25.51095549 -37 25 C-39.28068917 25.15476105 -41.52015506 25.44022179 -43.78515625 25.74609375 C-46.85627117 26.0981616 -49.91200954 26 -53 26 C-53.99 26.495 -53.99 26.495 -55 27 C-55.78375 26.67 -56.5675 26.34 -57.375 26 C-60.21291756 24.91888855 -61.23108199 24.91221078 -64 26 C-64.33 26.33 -64.66 26.66 -65 27 C-66.52540531 26.85429852 -68.04601942 26.65744756 -69.5625 26.4375 C-73.21166105 25.99960067 -75.82294561 26.04207375 -79.3125 27.1875 C-83 28 -83 28 -86 26.125 C-86.66 25.42375 -87.32 24.7225 -88 24 C-87.01 22.515 -87.01 22.515 -86 21 C-85.2265625 21.2165625 -85.2265625 21.2165625 -84.4375 21.4375 C-76.40267285 23.29169088 -68.07146101 23.8991673 -60 22 C-58.68 22 -57.36 22 -56 22 C-55.52820313 20.98679687 -55.52820313 20.98679687 -55.046875 19.953125 C-50.63522407 10.75775619 -50.63522407 10.75775619 -47 8 C-46.34 8 -45.68 8 -45 8 C-45 12.62 -45 17.24 -45 22 C-38.11252739 22.11498029 -38.11252739 22.11498029 -33 19 C-32.34 19 -31.68 19 -31 19 C-30.505 20.485 -30.505 20.485 -30 22 C-26.669919 22.38058069 -25.28063196 22.18480641 -22.4375 20.3125 C-19.91822776 18.06282501 -19.91822776 18.06282501 -18 15.25 C-16 13 -16 13 -13.25 12.6875 C-12.13625 12.8421875 -12.13625 12.8421875 -11 13 C-10.71125 14.093125 -10.4225 15.18625 -10.125 16.3125 C-9.18106796 20.04013845 -9.18106796 20.04013845 -7 23 C-3.58410104 23.29071481 -1.26157733 23.08719244 2 22 C2.433125 22.639375 2.86625 23.27875 3.3125 23.9375 C4.91239177 26.26746003 4.91239177 26.26746003 8 27 C7.649375 26.46375 7.29875 25.9275 6.9375 25.375 C5.68977295 22.21409147 6.26281433 20.28382706 7 17 C7.2784375 15.576875 7.2784375 15.576875 7.5625 14.125 C7.706875 13.42375 7.85125 12.7225 8 12 C3.56620325 14.21689838 1.53363068 16.77728219 -1 21 C-2.9375 20.625 -2.9375 20.625 -5 20 C-6.74987801 16.50024399 -5.82819305 12.72365868 -5 9 C-3.25 5.9375 -3.25 5.9375 -1 4 C1.75 3.6875 1.75 3.6875 4 4 C5.125 7.75 5.125 7.75 4 10 C5.32 9.67 6.64 9.34 8 9 C8 7.35 8 5.7 8 4 C3.05 3.01 3.05 3.01 -2 2 C-1.34 1.34 -0.68 0.68 0 0 Z " fill="#2159A7" transform="translate(154,92)"/>
<path d="M0 0 C2 1 2 1 3.03515625 3.89453125 C4.99913104 11.01044926 6.30523148 18.01661426 6.609375 25.39453125 C6.64698441 26.22804108 6.68459381 27.0615509 6.7233429 27.9203186 C7.23782328 41.00681436 7.18701525 54.11294911 7.18530273 67.20751953 C7.18522141 70.31565155 7.19218997 73.42363636 7.20581055 76.53173828 C7.43613061 129.97865215 7.43613061 129.97865215 1 141 C-1.1328125 142.296875 -1.1328125 142.296875 -3 143 C-2.87882813 142.45214844 -2.75765625 141.90429688 -2.6328125 141.33984375 C2.52470322 116.94082709 2.16932235 92.14189066 2.12695312 67.31958008 C2.12434494 64.6393468 2.12922034 61.95914628 2.13380814 59.27891731 C2.50178913 34.54753419 2.50178913 34.54753419 0 10 C-0.06305204 8.20932194 -0.08671114 6.41662421 -0.0625 4.625 C-0.05347656 3.75101563 -0.04445312 2.87703125 -0.03515625 1.9765625 C-0.01775391 0.99816406 -0.01775391 0.99816406 0 0 Z " fill="#8851F0" transform="translate(188,31)"/>
<path d="M0 0 C0.33 0 0.66 0 1 0 C1.17697423 5.66317522 0.69294938 10.53138772 -0.75 16 C-0.92974365 16.69697998 -1.1094873 17.39395996 -1.29467773 18.11206055 C-2.98394154 24.39918126 -4.87831582 30.65690914 -10 35 C-12.015625 35.84375 -12.015625 35.84375 -14.25 36.5 C-17.03225197 37.36053627 -19.57638384 38.25493901 -22.25 39.4375 C-44.1311112 48.78714707 -68.62349702 48.48541735 -92.03466797 48.33618164 C-94.69299117 48.32030568 -97.35006358 48.31106375 -100.00830078 48.31567383 C-136.76806931 48.37631869 -136.76806931 48.37631869 -151 44 C-147.56520829 41.93759158 -147.56520829 41.93759158 -145.125 42.20703125 C-144.42375 42.40683594 -143.7225 42.60664063 -143 42.8125 C-129.09372225 45.91836895 -114.24326886 45.09429447 -100.0625 45.125 C-99.35301208 45.12767883 -98.64352417 45.13035767 -97.91253662 45.13311768 C-95.87002457 45.1389715 -93.82766925 45.13724624 -91.78515625 45.1328125 C-90.00443726 45.13112061 -90.00443726 45.13112061 -88.18774414 45.12939453 C-85.32172599 45.01305926 -82.79565952 44.58816342 -80 44 C-78.50909725 43.93468115 -77.01558789 43.91415982 -75.5234375 43.9375 C-74.69287842 43.94595947 -73.86231934 43.95441895 -73.0065918 43.96313477 C-71.70395386 43.98138306 -71.70395386 43.98138306 -70.375 44 C-63.19154985 44.05116694 -56.13346979 43.94568094 -49 43 C-47.91847656 42.85820312 -46.83695312 42.71640625 -45.72265625 42.5703125 C-32.83720103 40.59625535 -18.40164618 38.00712339 -9.2109375 27.88671875 C-4.85459021 21.09924862 -3.52700312 12.90504686 -3 5 C-2.34 5 -1.68 5 -1 5 C-0.67 3.35 -0.34 1.7 0 0 Z " fill="#4713C8" transform="translate(196,146)"/>
<path d="M0 0 C3.43202436 2.46289646 5.56058382 5.14749727 6.54296875 9.2890625 C6.80315706 13.49426815 6.3838031 15.46944865 3.875 18.9375 C0.94251801 21.04123708 -1.51828344 22.10932832 -5 23 C-5.99 21.35 -6.98 19.7 -8 18 C-9.32 19.32 -10.64 20.64 -12 22 C-12.99 21.67 -13.98 21.34 -15 21 C-13.82348761 17.47046282 -13.11622456 17.21263506 -10 15.4375 C-6.91497173 13.78625452 -6.91497173 13.78625452 -5 11 C-4.34 11 -3.68 11 -3 11 C-3 9.68 -3 8.36 -3 7 C-3.66 7 -4.32 7 -5 7 C-5.33 7.66 -5.66 8.32 -6 9 C-6.70125 9.061875 -7.4025 9.12375 -8.125 9.1875 C-13.37768544 10.67195458 -16.55688177 14.62856011 -19.3359375 19.1953125 C-22.55582391 26.11464286 -23.01924153 33.47965034 -22 41 C-20.62718796 43.75826664 -20.62718796 43.75826664 -19 46 C-18.67 46.66 -18.34 47.32 -18 48 C-20.77599238 47.04276125 -21.96477752 46.04654399 -23.75 43.6875 C-26.42580424 35.7938775 -26.00008308 27.2234617 -22.546875 19.62890625 C-14.33052632 5.66526316 -14.33052632 5.66526316 -9 3 C-6 2.8125 -6 2.8125 -3 3 C-0.6058839 5.3941161 -0.70401077 6.03786311 -0.6875 9.3125 C-0.75847318 13.31280631 -1.50066975 15.77169843 -4 19 C-1.97954558 18.39816251 0.02111039 17.72693904 2 17 C3.73892856 13.52214289 3.57964634 9.79466151 3 6 C0.30853341 2.55155843 -1.45336409 2.09110598 -5.75 1.375 C-12.49470707 1.74405001 -17.83124565 6.48001133 -22.25 11.25 C-28.93003531 19.60469597 -31.87601315 28.4082047 -31 39 C-29.7630381 44.61989775 -27.49825994 48.28893555 -23 52 C-22.01 52.33 -21.02 52.66 -20 53 C-20 53.66 -20 54.32 -20 55 C-24.44985793 53.96514932 -27.12562094 52.53011467 -29.89453125 48.8203125 C-34.1963684 41.73672199 -34.65575807 35.02929256 -33 27 C-29.82722916 15.94436553 -22.91924237 7.04266856 -13.21484375 0.86328125 C-8.79733672 -1.36056625 -4.58201562 -1.79577986 0 0 Z " fill="#2891BA" transform="translate(68,67)"/>
<path d="M0 0 C0.33 0 0.66 0 1 0 C0.97068893 0.62233017 0.94137787 1.24466034 0.91117859 1.885849 C0.12277748 19.09402237 -0.18814244 36.27957738 -0.18530273 53.50463867 C-0.18522125 56.21173754 -0.19222642 58.91866793 -0.20581055 61.62573242 C-0.28432303 77.51308922 0.0727784 93.22539924 1.5690918 109.05053711 C1.91423916 112.716109 2.0982119 116.31414249 2 120 C1.34 120 0.68 120 0 120 C-0.12375 119.443125 -0.2475 118.88625 -0.375 118.3125 C-0.93212833 115.98337925 -0.93212833 115.98337925 -2 113.875 C-5.15920167 104.7922952 -4.14755099 94.38743772 -4.1328125 84.88671875 C-4.13348752 83.34357183 -4.13445919 81.80042501 -4.13571167 80.25727844 C-4.13717711 77.04252091 -4.13506998 73.82779136 -4.13037109 70.61303711 C-4.12465034 66.49971405 -4.12797489 62.38645592 -4.13394356 58.27313519 C-4.13755992 55.09466565 -4.13640604 51.91621148 -4.13381577 48.73774147 C-4.13315072 47.22073166 -4.13396009 45.70372043 -4.13629532 44.18671227 C-4.13884218 42.06934283 -4.13495371 39.95207843 -4.12939453 37.8347168 C-4.12859894 36.63243942 -4.12780334 35.43016205 -4.12698364 34.19145203 C-4.01304143 31.32776749 -3.63177453 28.78602809 -3 26 C-2.88354963 24.45142294 -2.80192265 22.89986308 -2.75390625 21.34765625 C-2.72103516 20.48849609 -2.68816406 19.62933594 -2.65429688 18.74414062 C-2.59323695 16.96041147 -2.53592798 15.17654985 -2.48242188 13.39257812 C-2.29109915 8.57341125 -1.84309524 4.5293879 0 0 Z " fill="#37C5E6" transform="translate(6,42)"/>
<path d="M0 0 C3.32497126 0.01079616 6.64940927 -0.00002231 9.97436523 -0.01269531 C52.75066124 -0.04093414 52.75066124 -0.04093414 70.99584961 8.26074219 C67.36567893 9.54552944 64.97682352 8.93934077 61.30834961 7.94824219 C47.75891398 4.60475723 34.07284614 3.94500525 20.17553711 3.95996094 C18.61825451 3.95605217 17.06097293 3.95171325 15.50369263 3.94697571 C12.26504031 3.93959185 9.02649712 3.9397458 5.7878418 3.94506836 C2.52044887 3.94969168 -0.74657116 3.94280016 -4.01391602 3.92456055 C-21.91558939 3.8252996 -39.31042997 4.07624463 -57.02947998 6.98452759 C-59.3699116 7.31190444 -61.64453839 7.375307 -64.00415039 7.26074219 C-52.29463768 -4.44877052 -15.28630345 -0.05882393 0 0 Z " fill="#B9F2F8" transform="translate(99.004150390625,4.7392578125)"/>
<path d="M0 0 C5.63285519 0.85427188 11.10752709 2.18304665 16.63476562 3.5390625 C37.9402215 8.66921719 60.98090282 7.10206541 82.75 7.125 C83.8885141 7.1275882 85.0270282 7.13017639 86.20004272 7.13284302 C102.23570307 7.16153245 117.87668044 7.04713892 133.6875 4.0625 C134.64849609 3.89298828 135.60949219 3.72347656 136.59960938 3.54882812 C142.09209489 2.57095421 142.09209489 2.57095421 147 0 C149.6875 -0.125 149.6875 -0.125 152 0 C138.51266371 13.48733629 105.37699511 10.41063961 87.90586472 10.41397572 C85.53291773 10.41013365 83.16003673 10.40137781 80.78710938 10.39111328 C76.8004152 10.37402222 72.81432185 10.384186 68.82764816 10.40143108 C23.15446897 10.56925681 23.15446897 10.56925681 2 2 C1.34 1.34 0.68 0.68 0 0 Z " fill="#200B57" transform="translate(24,188)"/>
<path d="M0 0 C0.33 0 0.66 0 1 0 C1.00586624 1.23202652 1.01173248 2.46405304 1.01777649 3.7334137 C1.07522872 15.39876929 1.14810614 27.06394249 1.23571491 38.72911167 C1.28025938 44.72491143 1.31954991 50.72064572 1.34643555 56.71655273 C1.3726282 62.51332562 1.4131414 68.30984439 1.46318626 74.10645866 C1.47974772 76.30736036 1.49132821 78.50830591 1.49761391 80.70926094 C1.53253712 91.82343043 1.73507988 102.34007589 4.45939636 113.15635681 C4.98494665 115.92081747 4.95343237 117.39253263 4 120 C-5.73521285 102.25850555 -2.16246218 75.44005038 -2.13037109 55.78979492 C-2.12467987 52.27262111 -2.12805772 48.75552304 -2.13380814 45.23835182 C-2.16822468 20.50307544 -2.16822468 20.50307544 -1.5546875 9.15234375 C-1.51594513 8.43156143 -1.47720276 7.71077911 -1.43728638 6.96815491 C-1.13463151 2.26926302 -1.13463151 2.26926302 0 0 Z " fill="#8FE7F4" transform="translate(7,48)"/>
<path d="M0 0 C1.58939069 0.0011977 3.1787821 0.00164372 4.76817322 0.00138855 C8.05960681 0.00293318 11.35092851 0.01107046 14.64233398 0.0246582 C18.83799457 0.04177205 23.03353468 0.04546768 27.22922611 0.04471302 C30.49534735 0.04498596 33.76144284 0.05048493 37.02755547 0.05771446 C38.5747502 0.0608686 40.12194781 0.06286081 41.66914558 0.06360817 C49.36936335 0.07141633 56.95146185 0.15806796 64.58984375 1.23046875 C64.58984375 1.56046875 64.58984375 1.89046875 64.58984375 2.23046875 C20.24407396 3.76554603 20.24407396 3.76554603 8.59375 2.671875 C1.60066709 2.10964746 -5.2673772 2.4026379 -12.25097656 2.8996582 C-14.30340432 3.04425435 -16.35641903 3.17046033 -18.41015625 3.29492188 C-19.74095728 3.38303592 -21.07168988 3.47219092 -22.40234375 3.5625 C-23.5816748 3.64218018 -24.76100586 3.72186035 -25.97607422 3.80395508 C-29.61466329 4.25586856 -32.90933192 5.15700573 -36.41015625 6.23046875 C-38.23812897 6.59204577 -40.07153843 6.92763758 -41.91015625 7.23046875 C-46.19112081 7.97447087 -50.26331517 8.94034042 -54.41015625 10.23046875 C-54.74015625 9.57046875 -55.07015625 8.91046875 -55.41015625 8.23046875 C-52.38384133 4.31406121 -48.02596926 3.57990942 -43.36328125 2.95703125 C-41.78664458 2.79936758 -40.20830742 2.65819834 -38.62901306 2.52986145 C-35.54222894 2.24275311 -32.47245647 1.86961988 -29.39635372 1.48679066 C-19.56193664 0.2946865 -9.89710784 -0.05054674 0 0 Z " fill="#61E2ED" transform="translate(80.41015625,7.76953125)"/>
<path d="M0 0 C2.04900996 3.07351494 2.35774537 4.31797466 2.6875 7.875 C2.77386719 8.71804687 2.86023437 9.56109375 2.94921875 10.4296875 C3 13 3 13 2.53781128 15.27420044 C0.30411272 26.5952991 0.85086273 38.57597455 0.8671875 50.0703125 C0.86651204 51.76707981 0.86554001 53.46384703 0.86428833 55.16061401 C0.86282675 58.68521055 0.86491851 62.20978147 0.86962891 65.734375 C0.87536944 70.24899862 0.87201038 74.76356334 0.86605644 79.27818489 C0.86244638 82.76799974 0.86359072 86.25780055 0.86618423 89.74761581 C0.86685 91.41337974 0.86603734 93.07914495 0.86370468 94.74490738 C0.86116608 97.06320855 0.86503384 99.38141307 0.87060547 101.69970703 C0.87140106 103.01649445 0.87219666 104.33328186 0.87301636 105.68997192 C0.97604531 108.37558351 1.28089465 110.44849224 2 113 C1.91685386 114.92040756 1.76727868 116.83873231 1.5625 118.75 C1.46066406 119.73484375 1.35882813 120.7196875 1.25390625 121.734375 C1.17011719 122.48203125 1.08632812 123.2296875 1 124 C0.67 124 0.34 124 0 124 C-1.09413509 118.66571524 -1.16479705 113.49836335 -1.18945312 108.07910156 C-1.19774643 107.09632736 -1.20603973 106.11355316 -1.21458435 105.10099792 C-1.23193465 102.97466865 -1.24711499 100.84832078 -1.26036072 98.72196198 C-1.2814396 95.36038804 -1.30845507 91.99890813 -1.33703613 88.63739014 C-1.40676072 80.29409481 -1.46636764 71.95073292 -1.52606201 63.60736084 C-1.5769308 56.54703419 -1.63171581 49.4867598 -1.69187927 42.42650604 C-1.71850811 39.10826656 -1.73928434 35.7900223 -1.7598877 32.47174072 C-1.7764833 30.44893151 -1.79335448 28.42612454 -1.81054688 26.40332031 C-1.81473129 25.47551254 -1.81891571 24.54770477 -1.82322693 23.59178162 C-1.83157059 22.74787369 -1.83991425 21.90396576 -1.84851074 21.03448486 C-1.85366447 20.29931263 -1.85881821 19.5641404 -1.86412811 18.80669022 C-1.89290526 16.89845747 -1.89290526 16.89845747 -3 15 C-4.15691824 17.31383647 -4.18311371 18.81714854 -4.28125 21.39453125 C-4.33732422 22.70454102 -4.33732422 22.70454102 -4.39453125 24.04101562 C-4.42933594 24.95560547 -4.46414063 25.87019531 -4.5 26.8125 C-4.56931424 28.61081955 -4.64212595 30.40900833 -4.71875 32.20703125 C-4.74904297 33.0060083 -4.77933594 33.80498535 -4.81054688 34.62817383 C-5.01162502 37.14553749 -5.45959227 39.53507345 -6 42 C-6.33 42 -6.66 42 -7 42 C-7.270766 30.82338136 -6.53472832 20.07196858 -5 9 C-4.34 9 -3.68 9 -3 9 C-2.814375 8.1646875 -2.814375 8.1646875 -2.625 7.3125 C-1.94023145 4.77885636 -1.00866237 2.42078968 0 0 Z " fill="#6DD1DC" transform="translate(9,31)"/>
<path d="M0 0 C2 1 2 1 3.03515625 3.89453125 C4.99762401 11.00475691 6.30506902 18.00685005 6.609375 25.37890625 C6.64698441 26.21159027 6.68459381 27.04427429 6.7233429 27.90219116 C7.24082912 41.06775396 7.1870164 54.25355907 7.18530273 67.42724609 C7.18522117 70.56272103 7.19222839 73.69805081 7.20581055 76.83349609 C7.39570645 121.40644032 7.39570645 121.40644032 3 128 C2.97217871 126.08342203 2.95324766 124.1667152 2.9375 122.25 C2.92589844 121.18265625 2.91429687 120.1153125 2.90234375 119.015625 C2.92850922 115.89882432 3.19182925 112.84191892 3.4934082 109.74023438 C4.13230245 102.2100968 4.18334132 94.69171379 4.203125 87.140625 C4.20595238 86.39827354 4.20877975 85.65592209 4.21169281 84.89107513 C4.22658249 80.95358442 4.23587339 77.01612929 4.24023438 73.07861328 C4.24459566 69.88090458 4.25841038 66.68346924 4.28125 63.48583984 C4.40676236 45.56460414 4.17455296 28.08067328 1.35974121 10.3260498 C0.82874353 6.89267319 0.41399052 3.44925276 0 0 Z " fill="#BD91FA" transform="translate(188,31)"/>
<path d="M0 0 C14.92207081 0.60906411 30.75766575 4.52409014 41.234375 15.74609375 C44.14757092 19.46493013 46.59096617 23.47261262 48 28 C47.62109375 30.296875 47.62109375 30.296875 47 32 C46.50371094 30.97519531 46.00742188 29.95039062 45.49609375 28.89453125 C40.63307961 18.79451509 40.63307961 18.79451509 32 12 C31.01 12.66 30.02 13.32 29 14 C25.99609375 13.35546875 25.99609375 13.35546875 22.4375 12.1875 C16.53164396 10.37312361 11.13325205 9.41335214 5 9 C3.9275 8.835 2.855 8.67 1.75 8.5 C-4.14274047 7.71430127 -10.06947898 7.3865943 -16 7 C-16 6.67 -16 6.34 -16 6 C7.52010694 5.41222339 7.52010694 5.41222339 17.671875 8.34375 C20.07810498 9.13565337 20.07810498 9.13565337 23 9 C12.11056098 5.50045761 1.29920987 3.59008071 -10 2 C-10 1.67 -10 1.34 -10 1 C-6.7 1 -3.4 1 0 1 C0 0.67 0 0.34 0 0 Z " fill="#5FC2EE" transform="translate(146,4)"/>
<path d="M0 0 C1.485 0.99 1.485 0.99 3 2 C2.67 2.99 2.34 3.98 2 5 C2.99 5 3.98 5 5 5 C5.12375 5.64066406 5.2475 6.28132812 5.375 6.94140625 C7.08461197 14.11109144 9.90679231 17.88328386 16 22 C17.31886059 22.69485896 18.64844755 23.37108969 20 24 C20 24.66 20 25.32 20 26 C20.85464844 26.04898438 21.70929687 26.09796875 22.58984375 26.1484375 C23.69457031 26.22320312 24.79929687 26.29796875 25.9375 26.375 C27.59072266 26.47941406 27.59072266 26.47941406 29.27734375 26.5859375 C30.17582031 26.72257812 31.07429688 26.85921875 32 27 C32.495 27.99 32.495 27.99 33 29 C34.88764903 29.68472665 34.88764903 29.68472665 37.0625 30.125 C37.79597656 30.29257813 38.52945313 30.46015625 39.28515625 30.6328125 C39.85105469 30.75398438 40.41695312 30.87515625 41 31 C41 31.66 41 32.32 41 33 C43.31 33.33 45.62 33.66 48 34 C48 34.33 48 34.66 48 35 C36.14935677 35.47192827 22.25481265 34.61495815 12.75 26.8125 C5.05688804 19.53233838 1.08669374 10.43225993 0 0 Z " fill="#3021AD" transform="translate(4,157)"/>
<path d="M0 0 C3.80183524 0.14080871 6.29122484 0.53929614 9.5 2.625 C11.63470346 6.00494715 10.75210479 8.17110286 10 12 C10.185625 12.7425 10.37125 13.485 10.5625 14.25 C10.7790625 15.11625 10.7790625 15.11625 11 16 C10.34 16.99 9.68 17.98 9 19 C8.97360171 21.29714187 8.97360171 21.29714187 9.375 23.6875 C9.48585937 24.49574219 9.59671875 25.30398437 9.7109375 26.13671875 C9.80632812 26.75160156 9.90171875 27.36648437 10 28 C8.68 27.67 7.36 27.34 6 27 C6.66 27 7.32 27 8 27 C7.649375 26.46375 7.29875 25.9275 6.9375 25.375 C5.68977295 22.21409147 6.26281433 20.28382706 7 17 C7.185625 16.05125 7.37125 15.1025 7.5625 14.125 C7.706875 13.42375 7.85125 12.7225 8 12 C3.56620325 14.21689838 1.53363068 16.77728219 -1 21 C-2.9375 20.625 -2.9375 20.625 -5 20 C-6.74987801 16.50024399 -5.82819305 12.72365868 -5 9 C-3.25 5.9375 -3.25 5.9375 -1 4 C1.75 3.6875 1.75 3.6875 4 4 C5.125 7.75 5.125 7.75 4 10 C5.32 9.67 6.64 9.34 8 9 C8 7.35 8 5.7 8 4 C4.7 3.34 1.4 2.68 -2 2 C-1.34 1.34 -0.68 0.68 0 0 Z " fill="#363CBF" transform="translate(154,92)"/>
<path d="M0 0 C2.98296489 1.31731783 3.81216321 2.31989993 6 5 C6.72837061 8.14880219 6.68963096 10.8465593 6 14 C3.96194385 17.01934244 2.74780317 17.79605368 -0.75 18.75 C-1.86375 18.87375 -1.86375 18.87375 -3 19 C-2.505 18.195625 -2.01 17.39125 -1.5 16.5625 C0.31570804 12.25019342 0.50628274 8.6246981 0 4 C-1.0719919 2.72891938 -1.0719919 2.72891938 -3.5625 2.625 C-8.14876672 3.12532001 -11.48960916 5.02580251 -15 8 C-15.33 8.99 -15.66 9.98 -16 11 C-16.598125 11.53625 -17.19625 12.0725 -17.8125 12.625 C-21.55587581 16.68923659 -23.20436818 21.87831516 -25.125 27 C-26 29 -26 29 -28 30 C-29.76115612 23.34563171 -27.31649824 19.85592353 -24.03125 14.1328125 C-18.42864523 5.49187207 -10.85381209 -1.55054458 0 0 Z " fill="#EFF3F1" transform="translate(66,68)"/>
<path d="M0 0 C0.33 0 0.66 0 1 0 C1.73795271 5.78094277 2.14609231 11.44423559 2.12939453 17.27026367 C2.13114685 18.0422258 2.13289917 18.81418793 2.13470459 19.60954285 C2.13906066 22.12904187 2.13620823 24.64846917 2.1328125 27.16796875 C2.13348713 28.93435174 2.13445848 30.70073464 2.13571167 32.46711731 C2.13718 36.15443818 2.13506122 39.84173471 2.13037109 43.52905273 C2.12466172 48.24652375 2.12796594 52.96393801 2.13394356 57.68140697 C2.13756182 61.32314988 2.13640497 64.96487938 2.13381577 68.6066227 C2.13315065 70.34609293 2.13396034 72.08556439 2.13629532 73.82503319 C2.13884402 76.25602814 2.1349506 78.68693175 2.12939453 81.11791992 C2.13141876 81.83026794 2.13344299 82.54261597 2.13552856 83.27655029 C2.11860919 87.28689642 1.77204545 91.06474272 1 95 C0.34 94.67 -0.32 94.34 -1 94 C-0.67 62.98 -0.34 31.96 0 0 Z " fill="#7A49F2" transform="translate(195,57)"/>
<path d="M0 0 C0.70125 0.144375 1.4025 0.28875 2.125 0.4375 C2.41375 1.530625 2.7025 2.62375 3 3.75 C3.94393204 7.47763845 3.94393204 7.47763845 6.125 10.4375 C9.54089896 10.72821481 11.86342267 10.52469244 15.125 9.4375 C15.723125 10.22125 16.32125 11.005 16.9375 11.8125 C19.03585249 14.58324323 19.03585249 14.58324323 22.125 16.4375 C19.16092917 16.0258235 17.47841101 15.74530959 15.1875 13.75 C14.1665625 13.1003125 14.1665625 13.1003125 13.125 12.4375 C10.22507201 13.23700593 10.22507201 13.23700593 7.125 14.4375 C2.92954487 14.82596807 0.03874732 14.50390505 -3.75 12.8125 C-8.44142567 10.83474212 -12.16913367 11.92334393 -16.875 13.4375 C-15.875 11.4375 -15.875 11.4375 -12.6875 9.75 C-9.65782033 8.12054038 -7.85818985 6.39802981 -5.75 3.6875 C-3.21296784 0.48892989 -3.21296784 0.48892989 0 0 Z " fill="#3142BA" transform="translate(140.875,104.5625)"/>
<path d="M0 0 C0.99 0.66 1.98 1.32 3 2 C3.1875 4.625 3.1875 4.625 3 7 C1.35 7.33 -0.3 7.66 -2 8 C-2 6.35 -2 4.7 -2 3 C-4.37374861 2.66574265 -4.37374861 2.66574265 -7 3 C-10.5147207 5.88709201 -10.55932324 9.71187656 -10.984375 13.9765625 C-11.15370036 16.07102164 -11.15370036 16.07102164 -10 18 C-8.12119128 17.95231597 -8.12119128 17.95231597 -6 17 C-5.34 16.01 -4.68 15.02 -4 14 C-2 11 -2 11 0.125 10.3125 C0.74375 10.209375 1.3625 10.10625 2 10 C1.91621094 10.74765625 1.83242187 11.4953125 1.74609375 12.265625 C1.64425781 13.25046875 1.54242188 14.2353125 1.4375 15.25 C1.33308594 16.22453125 1.22867188 17.1990625 1.12109375 18.203125 C1.01025532 20.7631352 1.22261908 22.58148159 2 25 C0.125 24.75 0.125 24.75 -2 24 C-2.66 22.68 -3.32 21.36 -4 20 C-6.97 20 -9.94 20 -13 20 C-14.50079982 16.99840035 -13.99439154 14.38802653 -13.8125 11.0625 C-13.75707031 9.81597656 -13.70164063 8.56945312 -13.64453125 7.28515625 C-13 4 -13 4 -11.13671875 2.12109375 C-7.30545417 0.11090557 -4.28395828 -0.26774739 0 0 Z " fill="#E6E7E5" transform="translate(160,94)"/>
<path d="M0 0 C0.99 0 1.98 0 3 0 C3 2.31 3 4.62 3 7 C6.37503669 5.8141763 8.64722731 4.72426311 11 2 C11.33 2.66 11.66 3.32 12 4 C12.66 4 13.32 4 14 4 C14.625 5.8125 14.625 5.8125 15 8 C14.01 9.485 14.01 9.485 13 11 C11.08984375 11.2578125 11.08984375 11.2578125 8.9375 11.125 C7.638125 11.08375 6.33875 11.0425 5 11 C4.67 11.33 4.34 11.66 4 12 C1.85149121 11.93569089 -0.29505468 11.79864836 -2.4375 11.625 C-3.61183594 11.53476563 -4.78617187 11.44453125 -5.99609375 11.3515625 C-9 11 -9 11 -11 10 C-11.4140625 7.93359375 -11.4140625 7.93359375 -11.625 5.4375 C-11.69976562 4.61121094 -11.77453125 3.78492187 -11.8515625 2.93359375 C-11.90054688 2.29550781 -11.94953125 1.65742187 -12 1 C-11.71125 1.598125 -11.4225 2.19625 -11.125 2.8125 C-9.95257974 5.19327792 -9.95257974 5.19327792 -8 8 C-4.7444555 6.83730554 -3.90301511 5.8530532 -1.9375 2.875 C-1.298125 1.92625 -0.65875 0.9775 0 0 Z " fill="#EBEBEB" transform="translate(85,104)"/>
<path d="M0 0 C0.9075 0.12375 1.815 0.2475 2.75 0.375 C3.75 3.375 3.75 3.375 2.75 6.375 C3.513125 6.478125 4.27625 6.58125 5.0625 6.6875 C7.92059424 7.41864039 8.90742885 8.14451913 10.75 10.375 C11.41 9.715 12.07 9.055 12.75 8.375 C12.17655063 11.24224686 11.8885485 12.2364515 9.75 14.375 C8.43 14.375 7.11 14.375 5.75 14.375 C5.75 12.065 5.75 9.755 5.75 7.375 C2.49096298 8.53894179 1.67558334 9.49127604 -0.25 12.5 C-0.91 13.44875 -1.57 14.3975 -2.25 15.375 C-3.57 15.375 -4.89 15.375 -6.25 15.375 C-7.25 14.375 -7.25 14.375 -7.5625 10.6875 C-7.47391435 5.22471845 -5.92051761 0.68313665 0 0 Z " fill="#3179BC" transform="translate(82.25,96.625)"/>
<path d="M0 0 C3.46622189 2.48743736 5.66123121 5.1458458 6.4375 9.39453125 C6.49716799 11.70293643 6.47863449 13.74029292 6 16 C5.34 16.66 4.68 17.32 4 18 C3.01016193 15.03048578 3.02472213 13.59863132 3.25 10.5625 C3.2727554 7.0695455 3.23521006 6.30136289 1 3.4375 C-2.84363461 1.59575842 -5.88069004 1.03292186 -10 2 C-20.03585866 6.81381017 -25.78369353 14.97157386 -30 25 C-32.0638769 31.6589236 -31.71981648 38.84702918 -28.98828125 45.2421875 C-26.78312678 49.16439901 -24.23805552 51.58731483 -20 53 C-20 53.66 -20 54.32 -20 55 C-24.44985793 53.96514932 -27.12562094 52.53011467 -29.89453125 48.8203125 C-34.1963684 41.73672199 -34.65575807 35.02929256 -33 27 C-29.82722916 15.94436553 -22.91924237 7.04266856 -13.21484375 0.86328125 C-8.79733672 -1.36056625 -4.58201562 -1.79577986 0 0 Z " fill="#29ACD3" transform="translate(68,67)"/>
<path d="M0 0 C1.15616821 0.2019397 1.15616821 0.2019397 2.33569336 0.40795898 C14.22882355 2.56136004 14.22882355 2.56136004 18.9375 4.6875 C19.4325 5.6775 19.4325 5.6775 19.9375 6.6875 C13.69689029 5.95743992 7.55596961 4.94262061 1.38085938 3.79296875 C-8.45849756 2.00399476 -18.07832883 1.50294916 -28.06640625 1.37109375 C-29.38543442 1.35031265 -30.70446259 1.32953156 -32.0634613 1.30812073 C-35.54032612 1.2533911 -39.01724505 1.20376907 -42.49420166 1.15527344 C-46.0541251 1.10469562 -49.61397169 1.04920055 -53.17382812 0.99414062 C-60.13665192 0.88716146 -67.09954541 0.78558733 -74.0625 0.6875 C-74.0625 0.3575 -74.0625 0.0275 -74.0625 -0.3125 C-66.57351376 -0.45637995 -59.08449754 -0.59861557 -51.59545898 -0.73974609 C-49.0515066 -0.78787623 -46.50756112 -0.83637303 -43.96362305 -0.88525391 C-40.29217283 -0.95573424 -36.62069921 -1.02486511 -32.94921875 -1.09375 C-31.82480881 -1.11562378 -30.70039886 -1.13749756 -29.54191589 -1.16003418 C-8.56103244 -1.54886788 -8.56103244 -1.54886788 0 0 Z " fill="#A9EDF6" transform="translate(150.0625,7.3125)"/>
<path d="M0 0 C6.87865376 -0.02578903 13.75729465 -0.04304642 20.63598633 -0.05493164 C22.96606919 -0.0598971 25.29614905 -0.0666717 27.6262207 -0.07543945 C39.41948143 -0.11863821 51.20309507 -0.1038899 62.98828125 0.37890625 C63.86131393 0.40951645 64.73434662 0.44012665 65.63383484 0.47166443 C69.53127456 0.65908077 71.69093038 0.79395359 75 3 C47.94 3 20.88 3 -7 3 C-7 2.67 -7 2.34 -7 2 C-4.69 2 -2.38 2 0 2 C0 1.34 0 0.68 0 0 Z " fill="#59E2F0" transform="translate(74,3)"/>
<path d="M0 0 C3.64605302 0.14063283 7.29178139 0.28846818 10.9375 0.4375 C11.95908203 0.47681641 12.98066406 0.51613281 14.03320312 0.55664062 C15.04189453 0.59853516 16.05058594 0.64042969 17.08984375 0.68359375 C18.46450806 0.73858032 18.46450806 0.73858032 19.86694336 0.79467773 C22.23967484 0.95017272 24.60664692 1.19697444 26.96679688 1.48632812 C33.43840808 2.22778049 39.93469341 2.34345934 46.44140625 2.53515625 C47.81860822 2.57825574 49.1958003 2.6216724 50.57298279 2.66539001 C54.16817171 2.77867603 57.76347723 2.88770073 61.35882568 2.99578857 C65.03942871 3.10721079 68.71990296 3.22273159 72.40039062 3.33789062 C79.60014165 3.56256802 86.80002103 3.78273633 94 4 C94 4.33 94 4.66 94 5 C17.84006267 5.28484889 17.84006267 5.28484889 0 1 C0 0.67 0 0.34 0 0 Z " fill="#2F0C9B" transform="translate(38,191)"/>
<path d="M0 0 C0.99 0.495 0.99 0.495 2 1 C1.99777939 1.99336365 1.99555878 2.98672729 1.99327087 4.01019287 C1.97300551 13.36841293 1.95801146 22.72662855 1.94818783 32.08486557 C1.94296765 36.89610457 1.93588565 41.70732587 1.92456055 46.51855469 C1.91370101 51.16101506 1.90771664 55.80345839 1.90512276 60.44593048 C1.90327405 62.21775836 1.89966405 63.98958531 1.89426994 65.76140594 C1.88701886 68.241674 1.88601078 70.7218715 1.88647461 73.20214844 C1.88287933 73.93582642 1.87928406 74.66950439 1.87557983 75.42541504 C1.8823882 78.78650333 2.07106451 81.77023554 3 85 C2.91685386 86.92040756 2.76727868 88.83873231 2.5625 90.75 C2.46066406 91.73484375 2.35882813 92.7196875 2.25390625 93.734375 C2.17011719 94.48203125 2.08632812 95.2296875 2 96 C1.67 96 1.34 96 1 96 C-0.01690617 90.9638543 -0.13593121 86.16735083 -0.11352539 81.05712891 C-0.11367142 80.1784314 -0.11381744 79.29973389 -0.1139679 78.39440918 C-0.11327413 75.50510139 -0.1055069 72.61585896 -0.09765625 69.7265625 C-0.09579017 67.71731603 -0.09436716 65.70806911 -0.09336853 63.69882202 C-0.08955836 58.42167902 -0.0797409 53.14456373 -0.06866455 47.86743164 C-0.05841816 42.47803116 -0.053864 37.08862618 -0.04882812 31.69921875 C-0.03811726 21.13280035 -0.02105888 10.56640249 0 0 Z " fill="#43D2E6" transform="translate(8,59)"/>
<path d="M0 0 C0.33 0 0.66 0 1 0 C1.00586624 0.95640884 1.01173248 1.91281769 1.01777649 2.89820862 C1.07533953 11.9735556 1.14827165 21.04867065 1.23571491 30.12378025 C1.28017589 34.78782438 1.31948329 39.45178602 1.34643555 44.1159668 C1.3727135 48.62897326 1.41328252 53.141658 1.46318626 57.65446281 C1.47969131 59.36412447 1.49130623 61.07384156 1.49761391 62.78357124 C1.53711035 72.51787754 2.15965912 81.50668995 4.45939636 90.98716736 C4.96939888 93.82945723 4.98680529 95.33282091 4 98 C-2.37249567 86.3292087 -1.23293354 72.48738689 -0.9765625 59.5703125 C-0.95032283 57.84155688 -0.92506197 56.11278616 -0.90072632 54.38400269 C-0.83478469 49.88275693 -0.75574719 45.38183776 -0.67376709 40.88085938 C-0.5921452 36.26835451 -0.52320493 31.65566086 -0.453125 27.04296875 C-0.31433526 18.02841988 -0.16167831 9.01416542 0 0 Z " fill="#75CBF1" transform="translate(7,70)"/>
<path d="M0 0 C2 1 2 1 3.03515625 3.89453125 C8.33015363 23.13302173 7.15168736 43.21996872 7 63 C6.01 63.495 6.01 63.495 5 64 C4.98541748 63.15630859 4.97083496 62.31261719 4.95581055 61.44335938 C4.62616619 44.26923763 3.86255473 27.41642306 1.34765625 10.39453125 C0.84548098 6.93572854 0.42152409 3.46946751 0 0 Z " fill="#B5A4F9" transform="translate(188,31)"/>
<path d="M0 0 C9.20506669 16.80059984 5.36357896 43.8299688 5.20599365 62.56085205 C5.17472392 66.68505088 5.16148169 70.80930934 5.14648438 74.93359375 C5.11477502 82.95588674 5.06391054 90.97789903 5 99 C4.67 99 4.34 99 4 99 C3.98969254 98.19233688 3.97938507 97.38467377 3.96876526 96.55253601 C3.87083216 88.94515058 3.76832367 81.33784714 3.66066074 73.73059368 C3.60547057 69.81952916 3.55205681 65.9084571 3.50268555 61.99731445 C3.45498438 58.22363082 3.40263949 54.45003769 3.34705925 50.67646217 C3.32666176 49.23597273 3.30794438 47.79545849 3.29092598 46.35492516 C3.26682457 44.33901658 3.2362232 42.32318886 3.20532227 40.30737305 C3.18977798 39.15931686 3.1742337 38.01126068 3.15821838 36.82841492 C3.11986724 33.92168722 3.11986724 33.92168722 2 31 C1.86607902 29.66096279 1.77660989 28.31712927 1.71875 26.97265625 C1.68193115 26.18544189 1.6451123 25.39822754 1.60717773 24.5871582 C1.57180908 23.754021 1.53644043 22.92088379 1.5 22.0625 C1.15333382 14.69146663 0.68935926 7.34827639 0 0 Z " fill="#8B76F3" transform="translate(188,35)"/>
<path d="M0 0 C0 4.62 0 9.24 0 14 C6.88747261 14.11498029 6.88747261 14.11498029 12 11 C12.66 11 13.32 11 14 11 C14.33 11.99 14.66 12.98 15 14 C17.00016466 15.20882096 17.00016466 15.20882096 19 16 C0.82480561 18.08567804 0.82480561 18.08567804 -5.0625 18 C-7.93478135 17.78105168 -7.93478135 17.78105168 -10 19 C-10.99 18.34 -11.98 17.68 -13 17 C-11.73160474 16.49384702 -10.46016898 15.99530901 -9.1875 15.5 C-8.47980469 15.2215625 -7.77210937 14.943125 -7.04296875 14.65625 C-5 14 -5 14 -2 14 C-2.33 11.69 -2.66 9.38 -3 7 C-3.66 7 -4.32 7 -5 7 C-5.33 6.01 -5.66 5.02 -6 4 C-2.25 0 -2.25 0 0 0 Z " fill="#2650B5" transform="translate(109,100)"/>
<path d="M0 0 C5.25776002 0.91746148 10.43650325 1.55454549 15.7578125 1.94140625 C18 2.1875 18 2.1875 21 3.1875 C22.82465899 3.30359359 24.65307886 3.36406529 26.48120117 3.39282227 C27.60213669 3.41276749 28.7230722 3.43271271 29.87797546 3.45326233 C31.69214714 3.47833107 31.69214714 3.47833107 33.54296875 3.50390625 C34.78170242 3.52468735 36.0204361 3.54546844 37.29670715 3.56687927 C40.58625256 3.62121797 43.87582726 3.67145951 47.16546631 3.71972656 C50.52377814 3.77000646 53.88200046 3.82565861 57.24023438 3.88085938 C63.82675159 3.98803048 70.41333584 4.08980135 77 4.1875 C77 4.5175 77 4.8475 77 5.1875 C69.3574929 5.23436568 61.71500116 5.26963901 54.07238197 5.29112434 C50.52150938 5.30144939 46.97073688 5.31539494 43.41992188 5.33837891 C5.31983209 5.57817763 5.31983209 5.57817763 -9 1.1875 C-5.26961273 -1.29942485 -4.29612353 -0.80035955 0 0 Z " fill="#3D10B9" transform="translate(54,188.8125)"/>
<path d="M0 0 C1.485 0.99 1.485 0.99 3 2 C2.67 2.99 2.34 3.98 2 5 C2.99 5 3.98 5 5 5 C5.12375 5.64066406 5.2475 6.28132812 5.375 6.94140625 C7.08461197 14.11109144 9.90679231 17.88328386 16 22 C17.31886059 22.69485896 18.64844755 23.37108969 20 24 C17.66785852 25.20628008 15.50357861 26.1654738 13 27 C4.97631504 18.52554622 1.61722868 11.57595269 0 0 Z " fill="#2F36B4" transform="translate(4,157)"/>
<path d="M0 0 C0.33 0 0.66 0 1 0 C1.33 5.94 1.66 11.88 2 18 C2.33 18 2.66 18 3 18 C3.5064233 21.70748547 4.00399155 25.41610799 4.5 29.125 C4.64308594 30.17171875 4.78617187 31.2184375 4.93359375 32.296875 C5.58885754 37.22695492 6.20707401 42.01296747 6 47 C5.34 47 4.68 47 4 47 C3.87625 46.443125 3.7525 45.88625 3.625 45.3125 C3.06787167 42.98337925 3.06787167 42.98337925 2 40.875 C-1.00105009 32.24698099 -0.12274164 22.37417349 -0.0625 13.375 C-0.05798828 12.08464844 -0.05347656 10.79429688 -0.04882812 9.46484375 C-0.03714295 6.30984625 -0.02076044 3.15494863 0 0 Z " fill="#458FC8" transform="translate(2,115)"/>
<path d="M0 0 C0.33 0 0.66 0 1 0 C1.23074219 0.89203125 1.46148437 1.7840625 1.69921875 2.703125 C2.02535156 3.87359375 2.35148437 5.0440625 2.6875 6.25 C3.00074219 7.41015625 3.31398437 8.5703125 3.63671875 9.765625 C5.19565748 13.46419596 6.62910376 14.88291273 10 17 C15.9019791 17.89086477 20.14321305 16.18028099 25 13 C26.84604903 11.42595336 28.38229969 9.81991285 30 8 C29.77854028 11.87554506 29.06286207 12.9399318 26.1875 15.6875 C21.50221404 19.08662903 18.19570674 20.64223536 12.38671875 20.5078125 C7.80903276 19.53383676 4.85569657 16.57485732 2 13 C0.13544033 8.57167078 -0.23297864 4.77606221 0 0 Z " fill="#F0F1F0" transform="translate(41,99)"/>
<path d="M0 0 C5.14929108 -0.61301084 5.14929108 -0.61301084 7.59375 1.1484375 C8.0990625 1.61507812 8.604375 2.08171875 9.125 2.5625 C11.66577565 5.24924327 11.66577565 5.24924327 14.3125 5 C16.35003098 4.04145794 16.35003098 4.04145794 17 1 C17.66 1.33 18.32 1.66 19 2 C18.525625 2.886875 18.05125 3.77375 17.5625 4.6875 C15.89791364 7.81690525 15.89791364 7.81690525 15.5625 10.75 C15 13 15 13 12.9375 14.3125 C12.298125 14.539375 11.65875 14.76625 11 15 C10.38125 14.071875 10.38125 14.071875 9.75 13.125 C7.94426121 10.93231719 6.5909466 10.07211583 4 9 C5.32 8.67 6.64 8.34 8 8 C7.67 6.35 7.34 4.7 7 3 C4.69 2.34 2.38 1.68 0 1 C0 0.67 0 0.34 0 0 Z " fill="#287FCF" transform="translate(81,93)"/>
<path d="M0 0 C3.24854898 0.87798621 4.71575757 1.5999551 6.6875 4.375 C10.93968135 16.11911991 10.27582171 27.81134617 9 40 C8.67 40 8.34 40 8 40 C7.96132812 38.1128125 7.96132812 38.1128125 7.921875 36.1875 C7.58567524 24.94850744 6.23392435 14.76972016 3 4 C2.34 4.99 1.68 5.98 1 7 C0.67 4.69 0.34 2.38 0 0 Z " fill="#7374F4" transform="translate(186,28)"/>
<path d="M0 0 C0.33 0 0.66 0 1 0 C0.60310327 14.09467398 0.1703474 28.05077688 -2 42 C-2.33 42 -2.66 42 -3 42 C-3.19672365 40.27185839 -3.38196799 38.54240803 -3.5625 36.8125 C-3.66691406 35.84957031 -3.77132813 34.88664062 -3.87890625 33.89453125 C-4.00006588 30.99842532 -3.56945869 28.83125238 -3 26 C-2.71789433 21.80338285 -2.60850622 17.59641466 -2.48242188 13.39257812 C-2.29109915 8.57341125 -1.84309524 4.5293879 0 0 Z " fill="#4BDFEB" transform="translate(6,42)"/>
<path d="M0 0 C1.11375 0.1546875 1.11375 0.1546875 2.25 0.3125 C2.53875 1.385 2.8275 2.4575 3.125 3.5625 C3.97820109 6.40650364 4.8136503 8.74758983 6.25 11.3125 C5.59 11.003125 4.93 10.69375 4.25 10.375 C0.50484437 9.04859071 -2.78592212 8.63742442 -6.75 8.3125 C-7.74 8.8075 -7.74 8.8075 -8.75 9.3125 C-4.85638298 0.5518617 -4.85638298 0.5518617 0 0 Z " fill="#243392" transform="translate(140.75,104.6875)"/>
<path d="M0 0 C0.33 0 0.66 0 1 0 C2.09845718 4.32059823 3.17812739 8.61667943 4 13 C1.03 15.475 1.03 15.475 -2 18 C-3 17 -3 17 -3.125 13.375 C-3.08304465 9.50112278 -2.63639059 5.81834356 -2 2 C-1.34 2 -0.68 2 0 2 C0 1.34 0 0.68 0 0 Z " fill="#2345BB" transform="translate(130,94)"/>
<path d="M0 0 C-0.12568359 1.12148437 -0.12568359 1.12148437 -0.25390625 2.265625 C-0.35574219 3.25046875 -0.45757812 4.2353125 -0.5625 5.25 C-0.66691406 6.22453125 -0.77132812 7.1990625 -0.87890625 8.203125 C-0.98974468 10.7631352 -0.77738092 12.58148159 0 15 C-1.875 14.75 -1.875 14.75 -4 14 C-5.125 12 -5.125 12 -6 10 C-6.66 9.67 -7.32 9.34 -8 9 C-5.4 0 -5.4 0 0 0 Z " fill="#EBECEB" transform="translate(162,104)"/>
<path d="M0 0 C3.80183524 0.14080871 6.29122484 0.53929614 9.5 2.625 C11.63470346 6.00494715 10.75210479 8.17110286 10 12 C10.185625 12.7425 10.37125 13.485 10.5625 14.25 C10.7790625 15.11625 10.7790625 15.11625 11 16 C10.34 16.99 9.68 17.98 9 19 C8.97360171 21.29714187 8.97360171 21.29714187 9.375 23.6875 C9.48585937 24.49574219 9.59671875 25.30398437 9.7109375 26.13671875 C9.80632812 26.75160156 9.90171875 27.36648437 10 28 C8.68 27.67 7.36 27.34 6 27 C6.66 27 7.32 27 8 27 C7.649375 26.46375 7.29875 25.9275 6.9375 25.375 C5.68977295 22.21409147 6.26281433 20.28382706 7 17 C7.185625 16.05125 7.37125 15.1025 7.5625 14.125 C7.706875 13.42375 7.85125 12.7225 8 12 C7.34 11.67 6.68 11.34 6 11 C6.66 10.34 7.32 9.68 8 9 C8 7.35 8 5.7 8 4 C4.7 3.34 1.4 2.68 -2 2 C-1.34 1.34 -0.68 0.68 0 0 Z " fill="#4E47DC" transform="translate(154,92)"/>
<path d="M0 0 C-2.79620866 2.79620866 -6.11539948 3.45304063 -9.8125 4.5625 C-10.52470703 4.78357422 -11.23691406 5.00464844 -11.97070312 5.23242188 C-17.37392004 6.8868759 -22.39016031 8.1325757 -28.08203125 8.09765625 C-29.01337891 8.09443359 -29.94472656 8.09121094 -30.90429688 8.08789062 C-31.86400391 8.07951172 -32.82371094 8.07113281 -33.8125 8.0625 C-35.28106445 8.05573242 -35.28106445 8.05573242 -36.77929688 8.04882812 C-39.18626111 8.03708684 -41.59309857 8.02066419 -44 8 C-44 7.67 -44 7.34 -44 7 C-43.24460938 6.97421875 -42.48921875 6.9484375 -41.7109375 6.921875 C-33.78658775 6.51359469 -26.11810386 5.46124376 -18.3125 4.0625 C-17.34425293 3.89266602 -16.37600586 3.72283203 -15.37841797 3.54785156 C-14.46592285 3.37866211 -13.55342773 3.20947266 -12.61328125 3.03515625 C-11.79641846 2.8844165 -10.97955566 2.73367676 -10.13793945 2.57836914 C-0.50591916 -0.02734698 -0.50591916 -0.02734698 0 0 Z " fill="#220D5C" transform="translate(176,188)"/>
<path d="M0 0 C0.33 0 0.66 0 1 0 C1.05437607 1.58294782 1.09296271 3.16644256 1.125 4.75 C1.14820312 5.63171875 1.17140625 6.5134375 1.1953125 7.421875 C0.99139502 10.1135858 0.36551721 11.69904974 -1 14 C1.02930224 13.35919642 1.02930224 13.35919642 3 12 C3.80666435 9.65717517 3.80666435 9.65717517 4.0625 7 C4.41015625 4.3125 4.41015625 4.3125 5 2 C5.99 1.34 6.98 0.68 8 0 C6.7193885 11.98422998 6.7193885 11.98422998 3.625 15.25 C1 17 1 17 -3 17 C-3.34548714 10.66606918 -2.29342747 5.89738492 0 0 Z " fill="#224FBC" transform="translate(116,95)"/>
<path d="M0 0 C0.33 0.66 0.66 1.32 1 2 C1.99 1.67 2.98 1.34 4 1 C4 3.64 4 6.28 4 9 C2.56656 9.53190541 1.12804633 10.05015258 -0.3125 10.5625 C-1.51326172 10.99755859 -1.51326172 10.99755859 -2.73828125 11.44140625 C-5 12 -5 12 -8 11 C-7.401875 10.46375 -6.80375 9.9275 -6.1875 9.375 C-3.78461505 6.76615348 -2.4928399 4.19894265 -1 1 C-0.67 0.67 -0.34 0.34 0 0 Z " fill="#1D4396" transform="translate(103,105)"/>
<path d="M0 0 C0.99 0 1.98 0 3 0 C3.125 7.625 3.125 7.625 2 11 C1.65179959 12.66362417 1.31595508 14.32995171 1 16 C0.67 15.01 0.34 14.02 0 13 C-0.99 13.33 -1.98 13.66 -3 14 C-3.29341888 8.32723489 -3.00559652 5.00932754 0 0 Z " fill="#E9E9E9" transform="translate(99,95)"/>
<path d="M0 0 C8.76260002 0.35765714 16.65400942 2.38045551 25 5 C25 5.33 25 5.66 25 6 C23.906875 5.855625 22.81375 5.71125 21.6875 5.5625 C18.46190374 5.15718948 15.23922852 4.83692783 12 4.5625 C4.64173152 3.9190407 -2.67583194 2.94653615 -10 2 C-10 1.67 -10 1.34 -10 1 C-6.7 1 -3.4 1 0 1 C0 0.67 0 0.34 0 0 Z " fill="#73C4E1" transform="translate(146,4)"/>
<path d="M0 0 C0.66 1.32 1.32 2.64 2 4 C0.02 6.64 -1.96 9.28 -4 12 C-5.32 11.34 -6.64 10.68 -8 10 C-7.61508669 5.50934475 -5.14531178 0 0 0 Z " fill="#1D5BA4" transform="translate(83,101)"/>
<path d="M0 0 C2.46726679 0.68062532 3.71905056 1.51353112 5.00390625 3.73828125 C6.41959048 7.10926029 7.15000098 9.23332831 6.4375 12.875 C4.80354092 15.29041777 3.7826613 16.1567693 1 17 C0.01 16.67 -0.98 16.34 -2 16 C-1.505 15.360625 -1.01 14.72125 -0.5 14.0625 C1.48821064 10.00323661 1.45492186 6.45298509 1 2 C0.67 1.34 0.34 0.68 0 0 Z " fill="#DADCDD" transform="translate(65,70)"/>
<path d="M0 0 C0.33 0 0.66 0 1 0 C1.31775924 5.29598732 0.76934546 10.14997872 -0.1875 15.375 C-0.51814453 17.18097656 -0.51814453 17.18097656 -0.85546875 19.0234375 C-2 22 -2 22 -4.61328125 23.4140625 C-5.79470703 23.70410156 -5.79470703 23.70410156 -7 24 C-6.69255859 23.07380859 -6.69255859 23.07380859 -6.37890625 22.12890625 C-4.54784707 16.37289724 -3.48550136 11.02021684 -3 5 C-2.34 5 -1.68 5 -1 5 C-0.67 3.35 -0.34 1.7 0 0 Z " fill="#561FD2" transform="translate(196,146)"/>
<path d="M0 0 C7.0353061 0.43970663 12.28186587 6.01414705 16.8125 10.9375 C19.76611856 14.47237988 21.64312897 17.59016916 23 22 C22.5625 24.203125 22.5625 24.203125 22 26 C21.52691406 24.99839844 21.05382812 23.99679688 20.56640625 22.96484375 C15.63057933 12.9024272 10.90036271 6.06615982 0 2 C0 1.34 0 0.68 0 0 Z " fill="#8AA1D1" transform="translate(171,10)"/>
<path d="M0 0 C0.66 0.33 1.32 0.66 2 1 C2.0292483 4.20831391 2.04688189 7.41659307 2.0625 10.625 C2.07087891 11.52863281 2.07925781 12.43226563 2.08789062 13.36328125 C2.10491895 18.02904289 1.96829423 22.41013285 1 27 C0.34 26.67 -0.32 26.34 -1 26 C-1.12852505 17.27457699 -0.79645684 8.68991301 0 0 Z " fill="#7A34F1" transform="translate(195,125)"/>
<path d="M0 0 C3.75283733 1.45271122 3.75283733 1.45271122 4.875 3.9375 C5 6 5 6 3 9 C1.08984375 9.2578125 1.08984375 9.2578125 -1.0625 9.125 C-2.361875 9.08375 -3.66125 9.0425 -5 9 C-5.33 9.33 -5.66 9.66 -6 10 C-7.52519276 9.91062197 -9.04681929 9.75462854 -10.5625 9.5625 C-11.38878906 9.46066406 -12.21507813 9.35882813 -13.06640625 9.25390625 C-13.70449219 9.17011719 -14.34257813 9.08632812 -15 9 C-15 8.67 -15 8.34 -15 8 C-14.15695313 7.86722656 -13.31390625 7.73445313 -12.4453125 7.59765625 C-11.34960938 7.42105469 -10.25390625 7.24445313 -9.125 7.0625 C-7.48917969 6.80146484 -7.48917969 6.80146484 -5.8203125 6.53515625 C-3.06178454 6.14448841 -3.06178454 6.14448841 -1 5 C-1 4.01 -1 3.02 -1 2 C-0.67 1.34 -0.34 0.68 0 0 Z " fill="#C9CACA" transform="translate(95,106)"/>
<path d="M0 0 C-0.0721875 0.91523437 -0.144375 1.83046875 -0.21875 2.7734375 C-0.3115625 3.96195312 -0.404375 5.15046875 -0.5 6.375 C-0.5928125 7.55835937 -0.685625 8.74171875 -0.78125 9.9609375 C-0.90195454 11.63786843 -1 13.31873056 -1 15 C1.31 15 3.62 15 6 15 C5.67 15.66 5.34 16.32 5 17 C-0.4 17.48 -0.4 17.48 -2.875 15.5 C-4.50517055 11.87739877 -4.19772667 8.95453342 -4 5 C-5.32 4.67 -6.64 4.34 -8 4 C-2 0 -2 0 0 0 Z " fill="#DCDCDC" transform="translate(148,99)"/>
<path d="M0 0 C0.66 1.32 1.32 2.64 2 4 C0.68 4 -0.64 4 -2 4 C-2.33 4.66 -2.66 5.32 -3 6 C-5.3306218 6.35179197 -7.66435067 6.68330179 -10 7 C-11.3530895 7.62559654 -12.69241523 8.28414785 -14 9 C-13.04663979 7.68388323 -12.08714226 6.37221039 -11.125 5.0625 C-10.59132812 4.33160156 -10.05765625 3.60070312 -9.5078125 2.84765625 C-6.72126583 -0.56694627 -4.19518559 -0.09119969 0 0 Z " fill="#3091B5" transform="translate(65,70)"/>
<path d="M0 0 C6.5508985 0.45759953 12.6753842 1.2100144 19 3 C19 3.66 19 4.32 19 5 C19.78375 5.144375 20.5675 5.28875 21.375 5.4375 C24 6 24 6 26 7 C25.34 8.32 24.68 9.64 24 11 C22.68 10.34 21.36 9.68 20 9 C20.66 9 21.32 9 22 9 C22 8.34 22 7.68 22 7 C21.00033203 6.72736328 21.00033203 6.72736328 19.98046875 6.44921875 C13.3203125 4.6328125 6.66015625 2.81640625 0 1 C0 0.67 0 0.34 0 0 Z " fill="#59BBF1" transform="translate(152,7)"/>
<path d="M0 0 C0.66 0.33 1.32 0.66 2 1 C1.01 2.485 1.01 2.485 0 4 C-0.35919321 5.99551782 -0.69496569 7.99548879 -1 10 C-1.33 10.33 -1.66 10.66 -2 11 C-2 12.32 -2 13.64 -2 15 C-0.35 15.33 1.3 15.66 3 16 C3 16.33 3 16.66 3 17 C-3.36 16.4 -3.36 16.4 -6 14.75 C-7 13 -7 13 -6.75 10.5 C-5.3067943 5.68931433 -3.66488743 3.47694448 0 0 Z " fill="#CDCFD0" transform="translate(76,99)"/>
<path d="M0 0 C0.66 0 1.32 0 2 0 C0.75496833 5.65923484 -0.9353721 8.8337564 -5 13 C-5.66 13 -6.32 13 -7 13 C-7 12.34 -7 11.68 -7 11 C-7.66 10.67 -8.32 10.34 -9 10 C-7.5484451 8.32742645 -6.08855591 6.66208242 -4.625 5 C-3.81289062 4.071875 -3.00078125 3.14375 -2.1640625 2.1875 C-1.44992188 1.465625 -0.73578125 0.74375 0 0 Z " fill="#4B19C6" transform="translate(191,168)"/>
<path d="M0 0 C0.33 0 0.66 0 1 0 C1.33 1.98 1.66 3.96 2 6 C2.33 6 2.66 6 3 6 C3.125 11.75 3.125 11.75 2 14 C1.84588894 16.0307477 1.75017547 18.06606421 1.68359375 20.1015625 C1.64169922 21.31328125 1.59980469 22.525 1.55664062 23.7734375 C1.51732422 25.04445313 1.47800781 26.31546875 1.4375 27.625 C1.37272461 29.543125 1.37272461 29.543125 1.30664062 31.5 C1.20030114 34.66655348 1.09827167 37.83318753 1 41 C0.67 41 0.34 41 0 41 C0 27.47 0 13.94 0 0 Z " fill="#56BED5" transform="translate(2,74)"/>
<path d="M0 0 C0.99 0.33 1.98 0.66 3 1 C1.52267049 4.8947778 -0.45879633 5.97645504 -4 8 C-5.36984198 9.29579647 -6.7151049 10.61992749 -8 12 C-8 8.21293268 -7.5745952 4.73486879 -7 1 C-6.34 1.99 -5.68 2.98 -5 4 C-4.236875 3.319375 -3.47375 2.63875 -2.6875 1.9375 C-1.800625 1.298125 -0.91375 0.65875 0 0 Z " fill="#D8DBDB" transform="translate(109,95)"/>
<path d="M0 0 C0.99 0.495 0.99 0.495 2 1 C2.81532068 3.52630386 3.50172821 5.98861836 4.125 8.5625 C4.30675781 9.25408203 4.48851562 9.94566406 4.67578125 10.65820312 C5.88914865 15.55272652 6.17006292 19.96046893 6 25 C2.48704205 21.3000779 2.06613157 17.35124585 1.3125 12.5 C1.18294922 11.74074219 1.05339844 10.98148438 0.91992188 10.19921875 C0.34109285 6.70174393 0 3.5708872 0 0 Z " fill="#99A5F6" transform="translate(188,31)"/>
<path d="M0 0 C0.33 0.66 0.66 1.32 1 2 C-4.70870833 1.33182164 -10.34509513 0.46165521 -16 -0.5625 C-16.77472656 -0.70107422 -17.54945313 -0.83964844 -18.34765625 -0.98242188 C-20.23210355 -1.31976121 -22.1161007 -1.65961365 -24 -2 C-24 -2.33 -24 -2.66 -24 -3 C-15.8578407 -4.83198584 -7.65431382 -3.11842415 0 0 Z " fill="#A9E2F7" transform="translate(169,12)"/>
<path d="M0 0 C1.73119049 3.46238098 1.03407576 7.59624528 0.9609375 11.4140625 C0.92073548 14.81783361 1.17665521 17.72022984 2 21 C1.91685386 22.92040756 1.76727868 24.83873231 1.5625 26.75 C1.40974609 28.22726563 1.40974609 28.22726563 1.25390625 29.734375 C1.17011719 30.48203125 1.08632812 31.2296875 1 32 C0.67 32 0.34 32 0 32 C-0.76027722 27.94304903 -1.12820327 24.10605895 -1.1328125 19.98046875 C-1.13410156 18.87638672 -1.13539063 17.77230469 -1.13671875 16.63476562 C-1.13285156 15.49716797 -1.12898437 14.35957031 -1.125 13.1875 C-1.12886719 12.03056641 -1.13273438 10.87363281 -1.13671875 9.68164062 C-1.13478516 8.03518555 -1.13478516 8.03518555 -1.1328125 6.35546875 C-1.13168457 5.35153076 -1.13055664 4.34759277 -1.12939453 3.31323242 C-1 1 -1 1 0 0 Z " fill="#4CAAEB" transform="translate(9,123)"/>
<path d="M0 0 C0.33 0 0.66 0 1 0 C2.50891884 8.6762833 2.51175405 16.52283008 0 25 C-0.33 25 -0.66 25 -1 25 C-1.12190678 16.60197746 -0.84327749 8.35748222 0 0 Z " fill="#B787F9" transform="translate(192,134)"/>
<path d="M0 0 C1.953125 0.5546875 1.953125 0.5546875 4 2 C4.609375 5.2578125 4.609375 5.2578125 4.75 9.125 C4.80671875 10.40632812 4.8634375 11.68765625 4.921875 13.0078125 C4.94765625 13.99523437 4.9734375 14.98265625 5 16 C4.34 16 3.68 16 3 16 C2.814375 15.1646875 2.814375 15.1646875 2.625 14.3125 C2.05601996 11.95332448 2.05601996 11.95332448 0.9375 9.6875 C-0.22285781 6.36114093 -0.13714832 3.4972821 0 0 Z " fill="#3976CD" transform="translate(3,146)"/>
<path d="M0 0 C1.32 0 2.64 0 4 0 C3.88590407 1.45922693 3.75834456 2.91740598 3.625 4.375 C3.55539063 5.18710938 3.48578125 5.99921875 3.4140625 6.8359375 C3 9 3 9 1 11 C0.01 11 -0.98 11 -2 11 C-2.18076403 7.02319127 -2.04080627 4.44386058 0 1 C0 0.67 0 0.34 0 0 Z " fill="#F2F1EC" transform="translate(111,95)"/>
<path d="M0 0 C5.99446399 1.04280799 11.93557988 1.72568043 18 2.1875 C18 2.5175 18 2.8475 18 3.1875 C14.81257885 3.24615035 11.62529882 3.28131259 8.4375 3.3125 C7.09461914 3.33763672 7.09461914 3.33763672 5.72460938 3.36328125 C0.39910095 3.40229596 -3.96370689 2.94225782 -9 1.1875 C-5.26961273 -1.29942485 -4.29612353 -0.80035955 0 0 Z " fill="#3D1EC1" transform="translate(54,188.8125)"/>
<path d="M0 0 C1.485 0.99 1.485 0.99 3 2 C2.67 2.99 2.34 3.98 2 5 C2.99 5 3.98 5 5 5 C5.66 7.97 6.32 10.94 7 14 C6.01 14.33 5.02 14.66 4 15 C1.94637945 9.91059256 0.56820748 5.45479185 0 0 Z " fill="#3052C0" transform="translate(4,157)"/>
<path d="M0 0 C0.66 0 1.32 0 2 0 C3.34919532 1.65385233 4.68133728 3.321702 6 5 C6.99 5.66 7.98 6.32 9 7 C6.03592917 6.5883235 4.35341101 6.30780959 2.0625 4.3125 C1.381875 3.879375 0.70125 3.44625 0 3 C-2.89992799 3.79950593 -2.89992799 3.79950593 -6 5 C-8.33212027 5.07522969 -10.6685311 5.09325876 -13 5 C-13.33 4.34 -13.66 3.68 -14 3 C-12.60974609 2.80083984 -12.60974609 2.80083984 -11.19140625 2.59765625 C-9.99386719 2.42105469 -8.79632813 2.24445313 -7.5625 2.0625 C-6.36753906 1.88847656 -5.17257813 1.71445313 -3.94140625 1.53515625 C-1.12044324 1.31014787 -1.12044324 1.31014787 0 0 Z " fill="#352EC2" transform="translate(154,114)"/>
<path d="M0 0 C0.33 0.99 0.66 1.98 1 3 C3.00016466 4.20882096 3.00016466 4.20882096 5 5 C-1.57849492 5.95494281 -7.41816638 5.8931507 -14 5 C-14 4.67 -14 4.34 -14 4 C-13.38511719 3.87882812 -12.77023438 3.75765625 -12.13671875 3.6328125 C-11.32847656 3.46523437 -10.52023438 3.29765625 -9.6875 3.125 C-8.88699219 2.96257812 -8.08648437 2.80015625 -7.26171875 2.6328125 C-4.49539754 1.85881589 -2.89416566 0 0 0 Z " fill="#4B60AB" transform="translate(123,111)"/>
<path d="M0 0 C1 2 1 2 0.07421875 4.78515625 C-0.38339844 5.86667969 -0.84101562 6.94820313 -1.3125 8.0625 C-1.76238281 9.14660156 -2.21226563 10.23070313 -2.67578125 11.34765625 C-4 14 -4 14 -6 15 C-7.34862385 9.60550459 -7.34862385 9.60550459 -5.8125 6.9375 C-5.214375 6.298125 -4.61625 5.65875 -4 5 C-3.278125 4.0925 -2.55625 3.185 -1.8125 2.25 C-1.214375 1.5075 -0.61625 0.765 0 0 Z " fill="#E8EDEE" transform="translate(44,83)"/>
<path d="M0 0 C2 3 2 3 4 6 C4.99 4.68 5.98 3.36 7 2 C7.125 8.75 7.125 8.75 6 11 C4.02 10.34 2.04 9.68 0 9 C0 6.03 0 3.06 0 0 Z " fill="#EDEDE9" transform="translate(132,93)"/>
<path d="M0 0 C0.66 0.99 1.32 1.98 2 3 C5.10551666 3 6.35261084 2.4606285 9 1 C7.9441902 3.78349856 6.99481748 5.00409146 4.625 6.875 C2 8 2 8 -0.3125 7.1875 C-0.869375 6.795625 -1.42625 6.40375 -2 6 C-1.125 1.125 -1.125 1.125 0 0 Z " fill="#3298C1" transform="translate(63,82)"/>
<path d="M0 0 C0.33 0 0.66 0 1 0 C1.05819424 3.24992446 1.09366116 6.49971435 1.125 9.75 C1.14175781 10.67039062 1.15851562 11.59078125 1.17578125 12.5390625 C1.18222656 13.42851563 1.18867187 14.31796875 1.1953125 15.234375 C1.20578613 16.05131836 1.21625977 16.86826172 1.22705078 17.70996094 C0.97829916 20.21887518 0.25700129 21.83395625 -1 24 C-2.2386744 15.64731722 -1.59105604 8.27086157 0 0 Z " fill="#3BDAE9" transform="translate(4,60)"/>
<path d="M0 0 C1.81325551 0.11351517 3.62563357 0.24112961 5.4375 0.375 C6.95150391 0.47941406 6.95150391 0.47941406 8.49609375 0.5859375 C9.73552734 0.79089844 9.73552734 0.79089844 11 1 C11.33 1.66 11.66 2.32 12 3 C13.88764903 3.68472665 13.88764903 3.68472665 16.0625 4.125 C17.16271484 4.37636719 17.16271484 4.37636719 18.28515625 4.6328125 C18.85105469 4.75398437 19.41695312 4.87515625 20 5 C20 5.33 20 5.66 20 6 C13.41727705 5.60146354 7.02334972 4.86760841 1 2 C0.67 1.34 0.34 0.68 0 0 Z " fill="#3830C2" transform="translate(25,183)"/>
<path d="M0 0 C0.66 0.33 1.32 0.66 2 1 C1.36191406 1.77085938 0.72382813 2.54171875 0.06640625 3.3359375 C-1.17302734 4.84027344 -1.17302734 4.84027344 -2.4375 6.375 C-3.26121094 7.37273438 -4.08492187 8.37046875 -4.93359375 9.3984375 C-6.98415834 11.79655295 -6.98415834 11.79655295 -8 14 C-8.66 14 -9.32 14 -10 14 C-8.72130795 7.60653976 -4.61738504 4.23081327 0 0 Z " fill="#77D3D8" transform="translate(19,14)"/>
<path d="M0 0 C2.33944736 0.28730055 4.6739143 0.61936779 7 1 C4.34601922 2.76932052 2.9651626 3.30812873 0 4 C-0.33 4.33 -0.66 4.66 -1 5 C-2.52519276 4.91062197 -4.04681929 4.75462854 -5.5625 4.5625 C-6.80193359 4.40974609 -6.80193359 4.40974609 -8.06640625 4.25390625 C-8.70449219 4.17011719 -9.34257813 4.08632812 -10 4 C-10 3.67 -10 3.34 -10 3 C-9.04287109 2.80083984 -9.04287109 2.80083984 -8.06640625 2.59765625 C-7.24011719 2.42105469 -6.41382812 2.24445313 -5.5625 2.0625 C-4.73878906 1.88847656 -3.91507812 1.71445313 -3.06640625 1.53515625 C-1.02338796 1.19247006 -1.02338796 1.19247006 0 0 Z " fill="#2C5FB0" transform="translate(90,114)"/>
<path d="M0 0 C0.66 0 1.32 0 2 0 C2 0.66 2 1.32 2 2 C2.763125 2.28875 3.52625 2.5775 4.3125 2.875 C7 4 7 4 10 6 C12.74518321 6.24187651 12.74518321 6.24187651 15.6875 6.125 C16.68136719 6.10695313 17.67523438 6.08890625 18.69921875 6.0703125 C19.45847656 6.04710938 20.21773437 6.02390625 21 6 C17.02338957 8.21806493 13.48660844 8.55326193 9 8 C4.25815429 6.30009305 2.20117018 4.52462758 0 0 Z " fill="#BAB9B8" transform="translate(39,113)"/>
<path d="M0 0 C3.60271909 0.97370786 4.79777091 1.6899154 6.875 4.875 C7.98579669 7.96054636 8.24791579 9.05038085 7 12 C5.3372974 9.32521756 4.00016187 7.0004856 3 4 C2.34 4.99 1.68 5.98 1 7 C0.67 4.69 0.34 2.38 0 0 Z " fill="#6F8CF5" transform="translate(186,28)"/>
<path d="M0 0 C4.28379643 0.71260094 8.25093853 2.06921736 12.3125 3.5625 C12.95767578 3.79646484 13.60285156 4.03042969 14.26757812 4.27148438 C15.84621219 4.84447007 17.42327026 5.42179464 19 6 C15.17838846 7.13441522 13.66108777 6.61768994 10 5 C8.205625 4.5359375 8.205625 4.5359375 6.375 4.0625 C3.24481472 3.0770713 1.95689452 2.53245173 0 0 Z " fill="#281486" transform="translate(18,184)"/>
<path d="M0 0 C-0.33 4.29 -0.66 8.58 -1 13 C-1.33 13 -1.66 13 -2 13 C-2.33 11.02 -2.66 9.04 -3 7 C-3.66 7 -4.32 7 -5 7 C-5.33 6.01 -5.66 5.02 -6 4 C-2.25 0 -2.25 0 0 0 Z " fill="#3C65AC" transform="translate(109,100)"/>
<path d="M0 0 C2.1385485 2.1385485 2.42655063 3.13275314 3 6 C3.99 5.01 4.98 4.02 6 3 C6.66 3.33 7.32 3.66 8 4 C6.8803014 5.00593243 5.7540588 6.0045849 4.625 7 C3.99851563 7.556875 3.37203125 8.11375 2.7265625 8.6875 C1 10 1 10 -1 10 C-0.67 6.7 -0.34 3.4 0 0 Z " fill="#364ED0" transform="translate(142,92)"/>
<path d="M0 0 C2.05078125 0.03255208 4.1015625 0.06510417 6.15234375 0.09765625 C6.15234375 0.42765625 6.15234375 0.75765625 6.15234375 1.09765625 C4.57453125 1.46890625 4.57453125 1.46890625 2.96484375 1.84765625 C-2.38741707 3.38305228 -5.75079899 6.5338666 -8.84765625 11.09765625 C-8.43250728 6.25425165 -6.38556926 4.28177796 -2.84765625 1.09765625 C-1.84765625 0.09765625 -1.84765625 0.09765625 0 0 Z " fill="#EDF1F0" transform="translate(79.84765625,94.90234375)"/>
<path d="M0 0 C-6.76877682 6.95171674 -6.76877682 6.95171674 -11.1875 7.125 C-12.115625 7.08375 -13.04375 7.0425 -14 7 C-12.68 6.67 -11.36 6.34 -10 6 C-10 5.34 -10 4.68 -10 4 C-9.01 4 -8.02 4 -7 4 C-7 3.01 -7 2.02 -7 1 C-4.53721199 -0.231394 -2.7204945 -0.07159196 0 0 Z " fill="#311193" transform="translate(186,181)"/>
<path d="M0 0 C0.33 0 0.66 0 1 0 C0.88490339 1.41750563 0.75746342 2.83401169 0.625 4.25 C0.55539063 5.03890625 0.48578125 5.8278125 0.4140625 6.640625 C-0.21959878 10.25129873 -1.41641138 12.41641138 -4 15 C-3.63495936 9.33557626 -2.9445679 4.99296295 0 0 Z " fill="#56E5EF" transform="translate(9,31)"/>
<path d="M0 0 C0.33 0 0.66 0 1 0 C1.66 2.97 2.32 5.94 3 9 C4.65 9 6.3 9 8 9 C7.67 9.66 7.34 10.32 7 11 C4.69 11 2.38 11 0 11 C-1.26026798 8.47946405 -0.91874445 7.1457902 -0.5625 4.375 C-0.46066406 3.55773437 -0.35882813 2.74046875 -0.25390625 1.8984375 C-0.17011719 1.27195312 -0.08632812 0.64546875 0 0 Z " fill="#F7F7F3" transform="translate(147,103)"/>
<path d="M0 0 C0.33 0 0.66 0 1 0 C2.09845718 4.32059823 3.17812739 8.61667943 4 13 C3.34 13 2.68 13 2 13 C2 11.68 2 10.36 2 9 C1.01 9.33 0.02 9.66 -1 10 C-1.125 2.25 -1.125 2.25 0 0 Z " fill="#294EBE" transform="translate(130,94)"/>
<path d="M0 0 C0.33 0 0.66 0 1 0 C1.08086147 1.79093191 1.13912702 3.58289628 1.1875 5.375 C1.22230469 6.37273437 1.25710937 7.37046875 1.29296875 8.3984375 C1.19628906 9.25695312 1.09960938 10.11546875 1 11 C0.01 11.66 -0.98 12.32 -2 13 C-2.99 12.67 -3.98 12.34 -5 12 C-4.360625 11.13375 -3.72125 10.2675 -3.0625 9.375 C-1.02451704 6.0401188 -0.36566907 3.83952522 0 0 Z " fill="#EEEEED" transform="translate(68,74)"/>
<path d="M0 0 C0.33 0 0.66 0 1 0 C1.08333357 4.8333472 0.95261487 9.23692563 0 14 C-1.5 12.875 -1.5 12.875 -3 11 C-3.1875 7.8125 -3.1875 7.8125 -3 5 C-2.34 5 -1.68 5 -1 5 C-0.67 3.35 -0.34 1.7 0 0 Z " fill="#663CC5" transform="translate(196,146)"/>
<path d="M0 0 C-5.40303965 4.67289916 -10.04769059 4.44534366 -17 4 C-17 3.67 -17 3.34 -17 3 C-15.989375 2.896875 -14.97875 2.79375 -13.9375 2.6875 C-10.84966798 2.14835473 -8.98218475 1.65079629 -6.25 0.375 C-3 -1 -3 -1 0 0 Z " fill="#2576C9" transform="translate(65,119)"/>
<path d="M0 0 C0.99 0 1.98 0 3 0 C2.34 3.63 1.68 7.26 1 11 C0.67 11 0.34 11 0 11 C-0.38909985 9.54536519 -0.76088029 8.08608793 -1.125 6.625 C-1.33382813 5.81289063 -1.54265625 5.00078125 -1.7578125 4.1640625 C-1.83773438 3.44992188 -1.91765625 2.73578125 -2 2 C-1.34 1.34 -0.68 0.68 0 0 Z " fill="#50E3EB" transform="translate(12,26)"/>
<path d="M0 0 C1.6065676 0.25620684 3.2102483 0.53055871 4.8125 0.8125 C6.15248047 1.03873047 6.15248047 1.03873047 7.51953125 1.26953125 C10 2 10 2 13 5 C10.03 4.67 7.06 4.34 4 4 C4 3.34 4 2.68 4 2 C2.68 2 1.36 2 0 2 C0 1.34 0 0.68 0 0 Z " fill="#2C37AC" transform="translate(134,112)"/>
<path d="M0 0 C1.32 0.99 2.64 1.98 4 3 C4.66 2.34 5.32 1.68 6 1 C5.42655063 3.86724686 5.1385485 4.8614515 3 7 C2.01 7 1.02 7 0 7 C0 4.69 0 2.38 0 0 Z " fill="#1659B8" transform="translate(89,104)"/>
<path d="M0 0 C0.66 0.33 1.32 0.66 2 1 C1.52949219 1.45890625 1.05898438 1.9178125 0.57421875 2.390625 C-4.03368398 6.91549295 -4.03368398 6.91549295 -8 12 C-7.58388059 7.1452735 -5.54108048 5.19560921 -2 2 C-1.34 1.34 -0.68 0.68 0 0 Z " fill="#1E83A7" transform="translate(55,76)"/>
<path d="M0 0 C2.97 0.99 5.94 1.98 9 3 C8.34 4.32 7.68 5.64 7 7 C5.68 6.34 4.36 5.68 3 5 C3.66 5 4.32 5 5 5 C5 4.34 5 3.68 5 3 C3.35 2.67 1.7 2.34 0 2 C0 1.34 0 0.68 0 0 Z " fill="#5AA6F2" transform="translate(169,11)"/>
<path d="M0 0 C0.33 0 0.66 0 1 0 C2.32286246 4.96073422 2.08893197 9.91111512 2 15 C-0.63657988 12.71033853 -0.97589251 12.32545116 -1.25 8.625 C-1.0440294 5.63842628 -0.70362585 2.90245663 0 0 Z " fill="#40AAE7" transform="translate(4,126)"/>
<path d="M0 0 C0.33 0 0.66 0 1 0 C1.33 1.98 1.66 3.96 2 6 C2.33 6 2.66 6 3 6 C3.125 11.75 3.125 11.75 2 14 C1.34 14 0.68 14 0 14 C0 9.38 0 4.76 0 0 Z " fill="#50CBDA" transform="translate(2,74)"/>
<path d="M0 0 C0 0.66 0 1.32 0 2 C-1.24420647 2.5345256 -2.49570936 3.05208611 -3.75 3.5625 C-4.44609375 3.85253906 -5.1421875 4.14257812 -5.859375 4.44140625 C-8.30012784 5.07831803 -9.6403655 4.80248831 -12 4 C-10.75539217 3.32332002 -9.50403104 2.65905281 -8.25 2 C-7.55390625 1.62875 -6.8578125 1.2575 -6.140625 0.875 C-4 0 -4 0 0 0 Z " fill="#7ED1DA" transform="translate(35,8)"/>
<path d="M0 0 C0 3.93169105 -1.39419615 5.16427228 -4 8 C-4.66 8 -5.32 8 -6 8 C-5.65120368 4.74456771 -4.97866739 3.98126893 -2.4375 1.75 C-1.633125 1.1725 -0.82875 0.595 0 0 Z " fill="#3F18AB" transform="translate(190,173)"/>
<path d="M0 0 C0.66 0 1.32 0 2 0 C2 1.65 2 3.3 2 5 C1.01 5.495 1.01 5.495 0 6 C-1.13350534 8.01669827 -1.13350534 8.01669827 -2 10 C-2.1953125 3.9453125 -2.1953125 3.9453125 -2 2 C-1.34 1.34 -0.68 0.68 0 0 Z " fill="#F3F4F2" transform="translate(125,95)"/>
<path d="M0 0 C0.66 0 1.32 0 2 0 C2.36923077 6.52307692 2.36923077 6.52307692 0.5 8.9375 C0.005 9.288125 -0.49 9.63875 -1 10 C-2.31223496 6.06329512 -1.24296256 3.87511856 0 0 Z " fill="#178DB9" transform="translate(65,74)"/>
<path d="M0 0 C4.51478398 0.53115106 7.34666857 2.36620292 11 5 C10.67 5.99 10.34 6.98 10 8 C9.278125 7.38125 8.55625 6.7625 7.8125 6.125 C5.21618062 4.16333647 3.05328334 3.04684 0 2 C0 1.34 0 0.68 0 0 Z " fill="#86B1D7" transform="translate(171,10)"/>
<path d="M0 0 C0 0.33 0 0.66 0 1 C-1.43554025 1.50559908 -2.8735202 2.0042749 -4.3125 2.5 C-5.51326172 2.91765625 -5.51326172 2.91765625 -6.73828125 3.34375 C-9 4 -9 4 -12 4 C-12 3.34 -12 2.68 -12 2 C-4.71428571 -1.57142857 -4.71428571 -1.57142857 0 0 Z " fill="#7AE9F0" transform="translate(38,12)"/>
<path d="M0 0 C2.64 0 5.28 0 8 0 C7.67 0.66 7.34 1.32 7 2 C2.45906828 3.41904116 -2.2943099 3.09226843 -7 3 C-7 2.67 -7 2.34 -7 2 C-4.69 2 -2.38 2 0 2 C0 1.34 0 0.68 0 0 Z " fill="#68EBF2" transform="translate(74,3)"/>
<path d="M0 0 C0.79921875 0.29648438 1.5984375 0.59296875 2.421875 0.8984375 C3.02515625 1.13820313 3.6284375 1.37796875 4.25 1.625 C0.97814447 2.69810858 -1.17947592 2.51763102 -4.5 1.6875 C-5.29921875 1.49285156 -6.0984375 1.29820313 -6.921875 1.09765625 C-7.52515625 0.94167969 -8.1284375 0.78570312 -8.75 0.625 C-5.33677284 -1.55132374 -3.73452846 -1.42790794 0 0 Z " fill="#92D2F4" transform="translate(165.75,11.375)"/>
<path d="M0 0 C0.66 0 1.32 0 2 0 C1.64950425 3.24208567 1.43778819 4.61527704 -1.0625 6.8125 C-1.701875 7.204375 -2.34125 7.59625 -3 8 C-3.33 7.01 -3.66 6.02 -4 5 C-2.1875 2.3125 -2.1875 2.3125 0 0 Z " fill="#DFE0DE" transform="translate(134,105)"/>
<path d="M0 0 C0.33 0.66 0.66 1.32 1 2 C-0.8125 5 -0.8125 5 -3 8 C-3.99 8 -4.98 8 -6 8 C-5.1875 6.0625 -5.1875 6.0625 -4 4 C-3.01 3.67 -2.02 3.34 -1 3 C-0.67 2.01 -0.34 1.02 0 0 Z " fill="#2E2FB9" transform="translate(156,105)"/>
<path d="M0 0 C0.33 0 0.66 0 1 0 C1.05395478 1.62463842 1.09277195 3.24978541 1.125 4.875 C1.14820312 5.77992187 1.17140625 6.68484375 1.1953125 7.6171875 C1 10 1 10 -1 12 C-2.11658501 7.31034294 -1.80619523 4.46236469 0 0 Z " fill="#285BC1" transform="translate(116,95)"/>
<path d="M0 0 C0.66 0.33 1.32 0.66 2 1 C1.01 2.485 1.01 2.485 0 4 C-0.39013716 5.9896995 -0.73202649 7.99019869 -1 10 C-1.99 9.67 -2.98 9.34 -4 9 C-3.38461538 3.46153846 -3.38461538 3.46153846 -1.4375 1.125 C-0.963125 0.75375 -0.48875 0.3825 0 0 Z " fill="#D8D8D8" transform="translate(76,99)"/>
<path d="M0 0 C0.78375 0.04125 1.5675 0.0825 2.375 0.125 C1.75625 0.186875 1.1375 0.24875 0.5 0.3125 C-0.551875 0.7146875 -0.551875 0.7146875 -1.625 1.125 C-2.32711894 2.77704456 -2.99471413 4.44423769 -3.625 6.125 C-4.615 6.455 -5.605 6.785 -6.625 7.125 C-4.07142857 0.19387755 -4.07142857 0.19387755 0 0 Z " fill="#585FBD" transform="translate(155.625,95.875)"/>
<path d="M0 0 C1 3 2 6 3 9 C1.0625 8.1875 1.0625 8.1875 -1 7 C-1.33 6.01 -1.66 5.02 -2 4 C-2.66 3.67 -3.32 3.34 -4 3 C-2.68 2.67 -1.36 2.34 0 2 C0 1.34 0 0.68 0 0 Z " fill="#CBCEC6" transform="translate(158,110)"/>
<path d="M0 0 C0.99 0 1.98 0 3 0 C3 1.65 3 3.3 3 5 C2.34 4.34 1.68 3.68 1 3 C0.34 4.98 -0.32 6.96 -1 9 C-1.33 9 -1.66 9 -2 9 C-2.25 3.375 -2.25 3.375 0 0 Z " fill="#F2F6F5" transform="translate(99,95)"/>
<path d="M0 0 C1.32 0 2.64 0 4 0 C4.12375 0.639375 4.2475 1.27875 4.375 1.9375 C4.684375 2.9584375 4.684375 2.9584375 5 4 C5.66 4.33 6.32 4.66 7 5 C5.35 5 3.7 5 2 5 C1.34 3.35 0.68 1.7 0 0 Z " fill="#E7E6DF" transform="translate(122,110)"/>
<path d="M0 0 C2.29013653 3.4352048 2.17842973 4.985331 2 9 C1.01 8.34 0.02 7.68 -1 7 C-1 6.01 -1 5.02 -1 4 C-1.66 4 -2.32 4 -3 4 C-2.67 3.01 -2.34 2.02 -2 1 C-1.67 1.33 -1.34 1.66 -1 2 C-0.67 1.34 -0.34 0.68 0 0 Z " fill="#CAD0DA" transform="translate(111,103)"/>
<path d="M0 0 C1.10844919 3.32534757 0.84454356 5.62182575 0 9 C-0.99 8.67 -1.98 8.34 -3 8 C-3 7.01 -3 6.02 -3 5 C-2.34 5 -1.68 5 -1 5 C-0.67 3.35 -0.34 1.7 0 0 Z " fill="#F2F2F0" transform="translate(138,95)"/>
<path d="M0 0 C0.99 0.33 1.98 0.66 3 1 C0.03 4.96 0.03 4.96 -3 9 C-3.33 7.68 -3.66 6.36 -4 5 C-3.34 5 -2.68 5 -2 5 C-1.7834375 4.0409375 -1.7834375 4.0409375 -1.5625 3.0625 C-1 1 -1 1 0 0 Z " fill="#D1CBCA" transform="translate(52,74)"/>
<path d="M0 0 C0.66666667 2.66666667 1.33333333 5.33333333 2 8 C0.02 8.99 0.02 8.99 -2 10 C-1.34 6.7 -0.68 3.4 0 0 Z " fill="#7333EB" transform="translate(187,164)"/>
<path d="M0 0 C1.485 0.99 1.485 0.99 3 2 C2.67 2.99 2.34 3.98 2 5 C2.66 5 3.32 5 4 5 C3.67 6.98 3.34 8.96 3 11 C0.87953208 7.46588679 0.46800711 4.05606165 0 0 Z " fill="#355097" transform="translate(4,157)"/>
<path d="M0 0 C0.66 0.33 1.32 0.66 2 1 C0.54728878 4.75283733 0.54728878 4.75283733 -1.9375 5.875 C-4 6 -4 6 -7 4 C-5.824375 3.566875 -5.824375 3.566875 -4.625 3.125 C-1.90328368 2.15087746 -1.90328368 2.15087746 0 0 Z " fill="#DADDE5" transform="translate(120,108)"/>
<path d="M0 0 C0.99 0 1.98 0 3 0 C3 2.31 3 4.62 3 7 C2.01 6.34 1.02 5.68 0 5 C-0.1875 2.375 -0.1875 2.375 0 0 Z " fill="#3B5ABF" transform="translate(134,93)"/>
<path d="M0 0 C1.98 0 3.96 0 6 0 C6.66 1.32 7.32 2.64 8 4 C4.64404172 3.40072174 2.62198774 2.15377564 0 0 Z " fill="#49A0C0" transform="translate(59,70)"/>
<path d="M0 0 C2 1 2 1 3.125 4.0625 C3.41375 5.031875 3.7025 6.00125 4 7 C3.01 7 2.02 7 1 7 C0.34 5.02 -0.32 3.04 -1 1 C-0.67 0.67 -0.34 0.34 0 0 Z " fill="#2E3CA1" transform="translate(10,171)"/>
<path d="M0 0 C0.66 0 1.32 0 2 0 C0.60667426 3.36720387 -0.9789286 4.9859524 -4 7 C-4 5.68 -4 4.36 -4 3 C-3.01 3 -2.02 3 -1 3 C-0.67 2.01 -0.34 1.02 0 0 Z " fill="#276FB6" transform="translate(79,100)"/>
</svg>
