<?xml version="1.0" encoding="UTF-8"?>
<svg version="1.1" xmlns="http://www.w3.org/2000/svg" width="200" height="200">
<path d="M0 0 C1.06899952 2.82799659 1.93726036 5.54692365 2.734375 8.453125 C2.97665833 9.30549744 3.21894165 10.15786987 3.46856689 11.03607178 C3.97884232 12.8434504 4.48279869 14.65262305 4.98095703 16.46337891 C5.74436922 19.22959692 6.53268509 21.98780855 7.32421875 24.74609375 C7.81662153 26.50217941 8.30755514 28.25867781 8.796875 30.015625 C9.03323669 30.83975891 9.26959839 31.66389282 9.51312256 32.51300049 C10.63378921 36.64833224 11.4716454 39.8156802 10 44 C9.484375 44.804375 8.96875 45.60875 8.4375 46.4375 C6.63662788 49.6477503 6.48046107 51.36322746 7 55 C7.68835938 55.90234375 8.37671875 56.8046875 9.0859375 57.734375 C11.53553501 61.91368831 11.09792928 63.64113935 10.0625 68.3125 C9.91425781 69.00037598 9.76601562 69.68825195 9.61328125 70.39697266 C7.9678301 77.74013016 5.80519546 84.94409835 3.56689453 92.12451172 C3.05662572 93.81266203 2.60096033 95.51708629 2.15234375 97.22265625 C1.79849609 98.56650391 1.79849609 98.56650391 1.4375 99.9375 C1.25058594 100.68902344 1.06367188 101.44054687 0.87109375 102.21484375 C-0.32512329 104.66628406 -1.46416964 105.06471816 -4 106 C-6.31152344 105.75561523 -6.31152344 105.75561523 -8.859375 105.05859375 C-10.27500732 104.68178467 -10.27500732 104.68178467 -11.71923828 104.29736328 C-13.21946533 103.87173096 -13.21946533 103.87173096 -14.75 103.4375 C-16.28696533 103.01186768 -16.28696533 103.01186768 -17.85498047 102.57763672 C-19.92891901 101.99921776 -22.00105535 101.41429592 -24.07128906 100.82275391 C-26.67181526 100.09219595 -29.27795158 99.41601893 -31.8984375 98.76171875 C-43.25172291 95.79259333 -43.25172291 95.79259333 -46.5 90.8125 C-47.518395 88.66483635 -48 87.37355754 -48 85 C-48.8264502 85.09966064 -49.65290039 85.19932129 -50.50439453 85.30200195 C-58.11175578 85.57077771 -62.32626564 84.42114445 -67.94891357 79.40036011 C-70.66068744 76.77193738 -73.29418393 74.08540365 -75.87353516 71.3269043 C-77.88920842 69.17231234 -79.94815335 67.06776589 -82.01953125 64.96679688 C-83.32562749 63.61981075 -84.62911364 62.27028774 -85.9296875 60.91796875 C-86.54198212 60.28553757 -87.15427673 59.65310638 -87.78512573 59.00151062 C-88.34056061 58.40441788 -88.89599548 57.80732513 -89.46826172 57.19213867 C-89.95898163 56.67109055 -90.44970154 56.15004242 -90.95529175 55.61320496 C-92 54 -92 54 -92 50 C-90.62573242 48.48022461 -90.62573242 48.48022461 -88.66796875 46.96484375 C-85.10238045 44.02944516 -81.97908194 40.91429595 -78.86328125 37.50390625 C-77.48163243 36.02452359 -76.0964017 34.54854809 -74.71118164 33.07250977 C-73.77655685 32.06349347 -72.85299681 31.0441176 -71.94067383 30.01489258 C-64.28168239 21.41577873 -64.28168239 21.41577873 -58.39599609 20.34326172 C-55.19040407 20.34022077 -52.16659812 20.51927381 -49 21 C-48.70222656 20.23937256 -48.40445313 19.47874512 -48.09765625 18.69506836 C-44.96500151 11.00348124 -44.96500151 11.00348124 -41.125 9.04248047 C-38.77013281 8.21880259 -36.41646071 7.55763316 -34 6.9375 C-32.69204468 6.57579712 -32.69204468 6.57579712 -31.35766602 6.20678711 C-28.57766602 5.44693205 -25.78994945 4.72237616 -23 4 C-21.11313456 3.49273283 -19.2264142 2.98492568 -17.33984375 2.4765625 C-15.53972857 2.00267097 -13.73896561 1.53123182 -11.9375 1.0625 C-11.08736328 0.83876709 -10.23722656 0.61503418 -9.36132812 0.38452148 C-8.57048828 0.18673096 -7.77964844 -0.01105957 -6.96484375 -0.21484375 C-6.2699585 -0.39136475 -5.57507324 -0.56788574 -4.85913086 -0.74975586 C-3 -1 -3 -1 0 0 Z M-56.51953125 32.19018555 C-59.58654941 35.43259126 -62.57695759 38.71677222 -65.44140625 42.13989258 C-67 44 -67 44 -69 46 C-57.45 46 -45.9 46 -34 46 C-31.525 41.75125 -29.05 37.5025 -26.5 33.125 C-25.3253418 31.11623779 -25.3253418 31.11623779 -24.12695312 29.06689453 C-23.51787109 28.01614746 -22.90878906 26.96540039 -22.28125 25.8828125 C-21.65283203 24.80402832 -21.02441406 23.72524414 -20.37695312 22.61376953 C-18.84463767 20.19746762 -18.84463767 20.19746762 -19 18 C-32.70907591 18 -46.7099757 22.67495288 -56.51953125 32.19018555 Z M-8 23 C-9.42015448 25.2308006 -10.78504596 27.47141887 -12.125 29.75 C-12.93744969 31.12893589 -13.74995037 32.50784175 -14.5625 33.88671875 C-14.96984375 34.57942871 -15.3771875 35.27213867 -15.796875 35.98583984 C-16.89835327 37.82983248 -18.03238665 39.64632737 -19.1875 41.45703125 C-19.826875 42.48183594 -20.46625 43.50664063 -21.125 44.5625 C-21.70507812 45.47128906 -22.28515625 46.38007812 -22.8828125 47.31640625 C-24.31712637 50.7617686 -23.87455239 52.38943002 -23 56 C-21.52709265 59.13581894 -21.52709265 59.13581894 -19.62109375 62.2734375 C-19.28956802 62.84204498 -18.9580423 63.41065247 -18.61647034 63.99649048 C-17.56544771 65.7945607 -16.50177268 67.58474733 -15.4375 69.375 C-14.7185485 70.59976036 -14.00044075 71.82501643 -13.28320312 73.05078125 C-11.53185524 76.03964851 -9.76908588 79.02158922 -8 82 C-4.90636211 77.35954317 -3.82857181 72.1445762 -2.3125 66.8125 C-1.97927734 65.70068359 -1.64605469 64.58886719 -1.30273438 63.44335938 C1.92556909 52.10738318 -0.06550633 45.06573442 -3.5625 34 C-3.89185547 32.93910156 -4.22121094 31.87820312 -4.56054688 30.78515625 C-5.36771779 28.18817156 -6.18098869 25.59326993 -7 23 C-7.33 23 -7.66 23 -8 23 Z M-68 58 C-63.63308653 67.53860959 -54.12607685 77.17133655 -44.66894531 81.53808594 C-31.5413197 86.47756273 -31.5413197 86.47756273 -18 86 C-20.11590109 82.314347 -22.23386096 78.62988759 -24.35375977 74.9465332 C-25.07503439 73.69263 -25.7957396 72.43839908 -26.51586914 71.18383789 C-27.549457 69.38341747 -28.58506894 67.58417519 -29.62109375 65.78515625 C-30.2442749 64.70113525 -30.86745605 63.61711426 -31.50952148 62.50024414 C-32.77765081 60.14058329 -32.77765081 60.14058329 -34 59 C-36.51880517 58.84011509 -39.01342266 58.74065775 -41.53515625 58.68359375 C-42.66503212 58.6524221 -42.66503212 58.6524221 -43.81773376 58.62062073 C-46.2325599 58.55504575 -48.64749798 58.49620379 -51.0625 58.4375 C-52.69597529 58.3943223 -54.3294391 58.35070827 -55.96289062 58.30664062 C-59.97514464 58.19935638 -63.98751164 58.09811179 -68 58 Z " fill="#F9F9F9" transform="translate(131,5)"/>
<path d="M0 0 C3.96 0 7.92 0 12 0 C14.36931069 6.09048033 16.34275032 12.23240601 18.1875 18.5 C18.46013672 19.4178125 18.73277344 20.335625 19.01367188 21.28125 C19.67832828 23.52009261 20.34038246 25.7596687 21 28 C22.64124463 24.94736564 23.71084776 21.93449089 24.69140625 18.61328125 C24.99626953 17.59298828 25.30113281 16.57269531 25.61523438 15.52148438 C25.92783203 14.46251953 26.24042969 13.40355469 26.5625 12.3125 C27.18591034 10.20357011 27.81206221 8.09544802 28.44140625 5.98828125 C28.71670166 5.05540283 28.99199707 4.12252441 29.27563477 3.16137695 C30 1 30 1 31 0 C32.85287502 -0.07226502 34.70833878 -0.0838122 36.5625 -0.0625 C37.57441406 -0.05347656 38.58632812 -0.04445312 39.62890625 -0.03515625 C40.41136719 -0.02355469 41.19382813 -0.01195312 42 0 C41.41974714 7.16024444 39.41605428 13.56839116 37.18359375 20.375 C36.80767593 21.5400708 36.43175812 22.7051416 36.04444885 23.90551758 C34.84881299 27.60588057 33.64331323 31.30294247 32.4375 35 C31.6223925 37.51671524 30.80793223 40.0336402 29.99414062 42.55078125 C28.00358056 48.70297468 26.0041712 54.85222781 24 61 C20.04 61 16.08 61 12 61 C15.14285714 49.28571429 15.14285714 49.28571429 17 44 C16.37397888 43.91431259 15.74795776 43.82862518 15.10296631 43.74034119 C13 43 13 43 12.02545166 41.33668518 C11.8033905 40.61657761 11.58132935 39.89647003 11.35253906 39.15454102 C11.09257141 38.3402211 10.83260376 37.52590118 10.5647583 36.68690491 C10.16918732 35.35882057 10.16918732 35.35882057 9.765625 34.00390625 C9.48273621 33.1000267 9.19984741 32.19614716 8.90838623 31.26487732 C8.00652495 28.36869056 7.12846774 25.46585747 6.25 22.5625 C5.6433968 20.60826714 5.03534181 18.6544843 4.42578125 16.70117188 C3.31868111 13.12829106 2.21320677 9.55502262 1.12988281 5.97485352 C0.91100403 5.25395035 0.69212524 4.53304718 0.46661377 3.79029846 C0 2 0 2 0 0 Z " fill="#FDFDFD" transform="translate(140,133)"/>
<path d="M0 0 C1.81242052 -0.02687279 3.62495233 -0.04633715 5.4375 -0.0625 C6.44683594 -0.07410156 7.45617187 -0.08570313 8.49609375 -0.09765625 C11 0 11 0 12 1 C12.0883967 3.3756852 12.11530305 5.72208674 12.09765625 8.09765625 C12.0962413 8.80651474 12.09482635 9.51537323 12.09336853 10.24571228 C12.08775443 12.51801712 12.07519963 14.79022475 12.0625 17.0625 C12.05748681 18.59960796 12.05292359 20.13671745 12.04882812 21.67382812 C12.03778042 25.44925642 12.02050641 29.22461171 12 33 C13.6256807 32.69106068 15.25052748 32.3777305 16.875 32.0625 C17.77992187 31.88847656 18.68484375 31.71445313 19.6171875 31.53515625 C21.99956317 31.10036299 21.99956317 31.10036299 24 30 C24.33 20.1 24.66 10.2 25 0 C28.96 0 32.92 0 37 0 C37 14.52 37 29.04 37 44 C34.03 44 31.06 44 28 44 C27.67 43.01 27.34 42.02 27 41 C26.14277344 41.28875 25.28554688 41.5775 24.40234375 41.875 C10.28338762 46.45928339 10.28338762 46.45928339 4.1875 43.75 C1.72830091 41.78264072 1.0588407 40.94443934 0 38 C-0.16902104 35.06521323 -0.232654 32.2290388 -0.1953125 29.296875 C-0.1924826 28.45908508 -0.18965271 27.62129517 -0.18673706 26.75811768 C-0.17556349 24.08859837 -0.15046421 21.4194175 -0.125 18.75 C-0.11496654 16.93750485 -0.10584133 15.12500444 -0.09765625 13.3125 C-0.0756334 8.87487007 -0.04112304 4.43749237 0 0 Z " fill="#FDFDFD" transform="translate(16,133)"/>
<path d="M0 0 C2.99452434 2.24589325 3.81623122 3.44869367 5 7 C5.08518867 9.80426452 5.1158852 12.5829635 5.09765625 15.38671875 C5.0962413 16.20372757 5.09482635 17.02073639 5.09336853 17.86250305 C5.08777294 20.47087268 5.07522129 23.07915634 5.0625 25.6875 C5.05748443 27.45637897 5.05292162 29.22525928 5.04882812 30.99414062 C5.03780496 35.32946019 5.02054338 39.66471552 5 44 C1.04 44 -2.92 44 -7 44 C-7 33.11 -7 22.22 -7 11 C-10.96 11.99 -14.92 12.98 -19 14 C-19.33 23.9 -19.66 33.8 -20 44 C-23.96 44 -27.92 44 -32 44 C-32 29.48 -32 14.96 -32 0 C-29.03 0 -26.06 0 -23 0 C-22.67 0.99 -22.34 1.98 -22 3 C-21.16597656 2.69964844 -20.33195312 2.39929688 -19.47265625 2.08984375 C-6.61141852 -2.25616442 -6.61141852 -2.25616442 0 0 Z " fill="#FDFDFD" transform="translate(89,133)"/>
<path d="M0 0 C-0.33 3.96 -0.66 7.92 -1 12 C2.63 12 6.26 12 10 12 C10 15.3 10 18.6 10 22 C6.37 22 2.74 22 -1 22 C-0.67 29.59 -0.34 37.18 0 45 C4.80388386 46.13074409 4.80388386 46.13074409 9 46 C9.33 48.97 9.66 51.94 10 55 C3.8871723 57.44513108 -1.21685091 58.08233576 -7.375 55.6875 C-10 54 -10 54 -12 51 C-12.22705078 47.99731445 -12.22705078 47.99731445 -12.1953125 44.36328125 C-12.18564453 42.41518555 -12.18564453 42.41518555 -12.17578125 40.42773438 C-12.1590706 39.05598693 -12.14214071 37.68424214 -12.125 36.3125 C-12.11496674 34.92904282 -12.10584149 33.54557873 -12.09765625 32.16210938 C-12.07404967 28.77456548 -12.04112037 25.38736928 -12 22 C-14.31 22 -16.62 22 -19 22 C-19 18.7 -19 15.4 -19 12 C-16.69 12 -14.38 12 -12 12 C-12 8.37 -12 4.74 -12 1 C-7.89864774 0.35665063 -4.17263102 0 0 0 Z " fill="#FDFDFD" transform="translate(129,121)"/>
<path d="M0 0 C3.96 0 7.92 0 12 0 C12 14.52 12 29.04 12 44 C8.04 44 4.08 44 0 44 C0 29.48 0 14.96 0 0 Z " fill="#FDFDFD" transform="translate(97,133)"/>
<path d="M0 0 C3.96 0 7.92 0 12 0 C12 4.29 12 8.58 12 13 C8.04 13 4.08 13 0 13 C0 8.71 0 4.42 0 0 Z " fill="#FCFCFC" transform="translate(97,115)"/>
</svg>
